<svg width="484" height="484" viewBox="0 0 484 484" fill="none" xmlns="http://www.w3.org/2000/svg">
<g clip-path="url(#clip0)">
<path d="M128.276 261.586C127.672 260.982 127.397 260.269 127.397 259.446V177.262C127.397 176.329 127.672 175.561 128.221 175.012C128.77 174.409 129.484 174.134 130.417 174.134H167.044C176.873 174.134 184.287 176.329 189.174 180.608C194.061 184.942 196.477 190.868 196.477 198.329C196.477 202.718 195.379 206.449 193.237 209.521C191.096 212.593 188.57 214.788 185.714 216.159C189.229 217.75 192.249 220.384 194.665 224.005C197.081 227.626 198.344 231.74 198.344 236.349C198.344 244.194 195.708 250.503 190.382 255.277C185.055 260.05 177.642 262.464 168.142 262.464H130.362C129.594 262.464 128.88 262.189 128.276 261.586ZM164.793 210.344C169.076 210.344 172.371 209.301 174.732 207.162C177.038 205.077 178.191 202.224 178.191 198.713C178.191 195.202 177.038 192.459 174.787 190.484C172.535 188.563 169.186 187.576 164.793 187.576H145.189V210.289H164.793V210.344ZM166.056 248.967C170.449 248.967 173.853 247.76 176.269 245.346C178.685 242.932 179.948 239.915 179.948 236.184C179.948 232.508 178.685 229.436 176.214 227.022C173.743 224.608 170.339 223.401 166.056 223.401H145.189V248.912H166.056V248.967Z" fill="#67A4C0"/>
<path d="M277.089 261.586C276.485 260.982 276.211 260.269 276.211 259.446V177.262C276.211 176.329 276.485 175.561 277.034 175.012C277.584 174.409 278.297 174.134 279.231 174.134H315.858C325.687 174.134 333.1 176.329 337.987 180.608C342.875 184.942 345.291 190.868 345.291 198.329C345.291 202.718 344.193 206.449 342.051 209.521C339.909 212.593 337.383 214.788 334.528 216.159C338.042 217.75 341.063 220.384 343.479 224.005C345.895 227.626 347.158 231.74 347.158 236.349C347.158 244.194 344.522 250.503 339.196 255.277C333.869 260.05 326.456 262.464 316.956 262.464H279.176C278.407 262.464 277.693 262.189 277.089 261.586ZM313.606 210.344C317.889 210.344 321.184 209.301 323.545 207.162C325.852 205.077 327.005 202.224 327.005 198.713C327.005 195.202 325.852 192.459 323.6 190.484C321.349 188.563 317.999 187.576 313.606 187.576H294.002V210.289H313.606V210.344ZM314.869 248.967C319.262 248.967 322.667 247.76 325.083 245.346C327.499 242.932 328.762 239.915 328.762 236.184C328.762 232.508 327.499 229.436 325.028 227.022C322.557 224.608 319.152 223.401 314.869 223.401H294.002V248.912H314.869V248.967Z" fill="#67A4C0"/>
<path d="M202.957 261.586C202.353 260.983 202.079 260.269 202.079 259.447V252.863C202.079 250.504 203.122 248.529 205.264 246.938C205.264 246.938 235.575 218.793 238.815 215.831C242.055 212.868 244.471 210.07 246.064 207.546C247.656 205.023 248.48 202.554 248.48 200.085C248.48 196.135 247.436 193.008 245.295 190.758C243.208 188.509 239.968 187.357 235.685 187.357C231.457 187.357 228.162 188.619 225.746 191.087C223.33 193.556 221.847 196.793 221.243 200.743C220.969 201.731 220.529 202.499 219.815 202.938C219.102 203.377 218.333 203.651 217.454 203.651H206.087C205.319 203.651 204.715 203.377 204.165 202.883C203.671 202.389 203.397 201.731 203.397 200.963C203.561 196.025 204.934 191.362 207.515 187.028C210.096 182.693 213.775 179.182 218.552 176.549C223.33 173.915 228.986 172.599 235.466 172.599C242.22 172.599 247.931 173.751 252.653 176.055C257.376 178.359 260.89 181.541 263.251 185.601C265.612 189.661 266.766 194.215 266.766 199.372C266.766 205.023 265.173 210.125 262.043 214.733C258.858 219.342 229.755 247.212 229.755 247.212H265.503C266.436 247.212 267.205 247.486 267.754 248.09C268.358 248.693 268.633 249.461 268.633 250.339V259.447C268.633 260.379 268.358 261.092 267.754 261.641C267.15 262.19 266.381 262.464 265.503 262.464H205.099C204.275 262.464 203.561 262.19 202.957 261.586Z" fill="#1B4A5F"/>
<path d="M132.999 301.362L135.909 297.302C137.886 299.496 141.126 301.417 145.299 301.417C149.582 301.417 151.23 299.332 151.23 297.357C151.23 291.157 133.987 294.998 133.987 284.135C133.987 279.197 138.27 275.412 144.75 275.412C149.308 275.412 153.097 276.893 155.787 279.581L152.877 283.422C150.516 281.062 147.386 280.02 144.256 280.02C141.236 280.02 139.259 281.501 139.259 283.696C139.259 289.237 156.501 285.836 156.501 296.808C156.501 301.746 152.987 305.97 145.024 305.97C139.588 306.025 135.634 304.105 132.999 301.362Z" fill="#1B4A5F"/>
<path d="M189.174 290.718C189.174 281.885 195.434 275.412 204.33 275.412C213.171 275.412 219.486 281.885 219.486 290.718C219.486 299.551 213.171 306.025 204.33 306.025C195.434 306.025 189.174 299.551 189.174 290.718ZM214.16 290.718C214.16 284.574 210.316 280.02 204.33 280.02C198.345 280.02 194.501 284.574 194.501 290.718C194.501 296.808 198.345 301.417 204.33 301.417C210.261 301.417 214.16 296.808 214.16 290.718Z" fill="#1B4A5F"/>
<path d="M253.642 305.531V275.96H273.959V280.514H258.858V288.14H273.63V292.693H258.858V305.531H253.642Z" fill="#1B4A5F"/>
<path d="M314.924 305.531V280.514H305.973V275.96H329.091V280.514H320.141V305.531H314.924Z" fill="#1B4A5F"/>
<path d="M414.645 71.4316C417.062 74.2844 416.952 78.5638 414.261 81.252C412.833 82.6785 410.966 83.3917 409.099 83.3917C407.232 83.3917 405.365 82.6785 403.938 81.252C403.718 81.0326 403.498 80.8131 403.279 80.5937C445.946 123.551 469.448 180.499 469.448 241.068C469.448 301.965 445.726 359.187 402.62 402.2C399.764 405.053 399.764 409.606 402.62 412.459C404.047 413.885 405.914 414.599 407.781 414.599C409.648 414.599 411.515 413.885 412.943 412.459C458.795 366.649 484 305.806 484 241.068C484 177.152 459.399 117.023 414.645 71.4316Z" fill="#67A4C0"/>
<path d="M242.659 484C177.862 484 116.909 458.763 71.1119 413.007C25.2598 367.197 0 306.354 0 241.561C0 237.556 3.23985 234.319 7.24847 234.319C11.2571 234.319 14.4969 237.556 14.4969 241.561C14.4969 367.197 116.799 469.461 242.604 469.461C246.613 469.461 249.853 472.698 249.853 476.703C249.907 480.763 246.668 484 242.659 484Z" fill="#92CDEA"/>
<path d="M406.848 242.439C406.848 198.604 389.77 157.457 358.744 126.459C355.889 123.606 351.331 123.606 348.476 126.459C345.62 129.312 345.62 133.866 348.476 136.718C376.756 164.973 392.296 202.499 392.296 242.439C392.296 282.379 376.756 319.905 348.476 348.16C351.331 345.307 355.889 345.307 358.744 348.16C361.6 351.013 361.6 355.566 358.744 358.419C389.77 327.422 406.848 286.22 406.848 242.439Z" fill="#67A4C0"/>
<path d="M98.8425 386.125C137.281 424.529 188.35 445.651 242.659 445.651C296.967 445.651 348.091 424.529 386.475 386.125C423.925 348.708 445.067 299.003 446.055 246.17C446.549 219.122 441.772 192.733 431.888 167.716C421.674 141.821 406.353 118.559 386.475 98.6983C389.33 101.551 389.33 106.105 386.475 108.958C385.047 110.384 383.18 111.097 381.313 111.097C379.446 111.097 377.579 110.384 376.151 108.958C412.778 145.551 432.382 194.16 431.448 245.895C430.57 294.998 410.911 341.137 376.151 375.865C340.458 411.526 293.069 431.112 242.604 431.112C192.139 431.112 144.75 411.471 109.056 375.865C111.912 378.718 111.912 383.272 109.056 386.125C107.629 387.551 105.762 388.264 103.894 388.264C102.137 388.264 100.27 387.551 98.8425 386.125Z" fill="#C7D2D9"/>
<path d="M386.53 98.6982C348.091 60.2943 297.022 39.1721 242.714 39.1721C188.35 39.1721 137.281 60.3491 98.8425 98.6982C101.698 95.8454 106.256 95.8454 109.111 98.6982C111.967 101.551 111.967 106.105 109.111 108.958C144.804 73.2968 192.194 53.7107 242.659 53.7107C293.123 53.7107 340.568 73.3516 376.206 108.958C377.634 110.384 379.501 111.097 381.368 111.097C383.235 111.097 385.102 110.384 386.53 108.958C389.33 106.16 389.33 101.551 386.53 98.6982Z" fill="#92CDEA"/>
<path d="M104.004 388.264C102.137 388.264 100.27 387.551 98.8427 386.125C60.4039 347.721 39.2625 296.698 39.2625 242.439C39.2625 188.18 60.4039 137.102 98.8427 98.7532C101.698 95.9003 106.256 95.9003 109.111 98.7532C111.967 101.606 111.967 106.16 109.111 109.013C73.473 144.619 53.8143 192.02 53.8143 242.439C53.8143 292.858 73.473 340.259 109.111 375.865C111.967 378.718 111.967 383.272 109.111 386.125C107.739 387.551 105.871 388.264 104.004 388.264Z" fill="#67A4C0"/>
<path d="M242.714 406.424C198.839 406.424 157.654 389.362 126.629 358.364C123.773 355.511 123.773 350.958 126.629 348.105C129.484 345.252 134.042 345.252 136.897 348.105C165.177 376.359 202.737 391.885 242.714 391.885C282.69 391.885 320.251 376.359 348.531 348.105C351.386 345.252 355.944 345.252 358.799 348.105C361.655 350.958 361.655 355.511 358.799 358.364C327.774 389.362 286.534 406.424 242.714 406.424Z" fill="#1B4A5F"/>
<path d="M409.099 83.3915C407.232 83.3915 405.365 82.6783 403.938 81.2519C360.886 38.2394 303.612 14.5387 242.714 14.5387C181.816 14.5387 124.487 38.2394 81.3807 81.2519C78.5252 84.1047 73.9675 84.1047 71.112 81.2519C68.2566 78.399 68.2566 73.8454 71.112 70.9925C116.964 25.2369 177.862 0 242.714 0C307.566 0 368.464 25.2369 414.261 70.9925C417.117 73.8454 417.117 78.399 414.261 81.2519C412.833 82.6783 410.966 83.3915 409.099 83.3915Z" fill="#1B4A5F"/>
</g>
<defs>
<clipPath id="clip0">
<rect width="484" height="484" fill="white"/>
</clipPath>
</defs>
</svg>
