<svg width="2238" height="391" viewBox="0 0 2238 391" fill="none" xmlns="http://www.w3.org/2000/svg">
<path fill-rule="evenodd" clip-rule="evenodd" d="M583.653 71.206C594.029 75.47 603.109 81.4139 610.632 88.9082C618.156 96.4026 623.863 105.318 628.144 115.526C632.424 125.734 634.499 137.105 634.499 149.122C634.499 161.139 632.424 172.38 628.273 182.588C624.122 192.925 618.285 201.841 610.762 209.335C603.239 216.83 594.289 222.774 583.912 226.908C573.665 231.043 562.25 233.111 550.187 233.111H478.846V322.268H444.602V64.8745H549.668C561.861 64.8745 573.276 67.0711 583.653 71.206ZM596.495 170.055C599.089 163.724 600.386 156.746 600.386 149.381C600.386 142.016 599.089 134.909 596.365 128.449C593.771 121.988 590.139 116.303 585.599 111.651C581.059 106.999 575.611 103.252 569.385 100.539C563.159 97.9543 556.284 96.5329 548.891 96.5329H478.846V201.584H549.539C556.803 201.584 563.678 200.162 569.774 197.578C576 194.865 581.319 191.247 585.858 186.595C590.398 181.943 593.901 176.387 596.495 170.055Z" fill="black"/>
<path d="M735.026 129.998C727.503 131.807 720.498 134.52 714.142 137.88C707.787 141.239 701.95 145.374 697.15 150.026C696.631 150.543 696.113 151.059 695.594 151.576L694.037 127.284H663.814V322.268H697.539V223.807C697.539 213.082 699.096 203.391 702.209 195.251C705.322 187.239 709.603 180.52 714.921 175.222C720.239 169.925 726.854 165.919 734.377 163.206C742.16 160.363 750.721 158.942 760.06 158.942H785.095V127.284H759.282C750.721 127.284 742.549 128.189 735.026 129.998Z" fill="black"/>
<path fill-rule="evenodd" clip-rule="evenodd" d="M942.563 130.386C955.275 135.683 966.56 142.919 976.028 152.093C985.497 161.268 993.021 172.251 998.209 184.655C1003.66 197.06 1006.38 210.627 1006.38 224.712C1006.38 238.925 1003.66 252.492 998.209 264.897C992.891 277.301 985.368 288.285 975.899 297.459C966.43 306.633 955.145 313.869 942.433 319.167C929.592 324.464 915.713 327.178 900.925 327.178C886.268 327.178 872.389 324.464 859.677 319.167C846.965 313.998 835.681 306.633 826.341 297.459C817.002 288.155 809.479 277.301 804.031 264.897C798.583 252.492 795.859 238.925 795.859 224.712C795.859 210.627 798.713 197.06 804.031 184.655C809.349 172.251 816.872 161.268 826.341 152.093C835.81 142.919 846.965 135.683 859.677 130.386C885.101 119.79 917.01 119.79 942.563 130.386ZM967.34 252.88C970.972 244.223 972.918 234.79 972.918 224.711C972.918 214.762 971.102 205.329 967.34 196.801C963.708 188.144 958.52 180.52 952.034 174.318C945.549 167.987 937.896 162.947 929.205 159.329C920.644 155.711 911.175 153.902 901.317 153.902C891.459 153.902 881.99 155.711 873.429 159.329C864.738 162.818 857.215 167.857 850.729 174.189C844.244 180.52 839.185 188.015 835.423 196.672C831.792 205.329 829.846 214.762 829.846 224.711C829.846 234.79 831.662 244.223 835.423 252.88C839.185 261.537 844.374 269.032 850.729 275.363C857.085 281.695 864.738 286.734 873.429 290.223C890.681 297.329 912.083 297.329 929.335 290.223C938.025 286.605 945.549 281.695 952.034 275.363C958.39 269.032 963.579 261.537 967.34 252.88Z" fill="black"/>
<path d="M1113.65 272.908L1050.87 127.284H1014.29L1099.52 322.268H1128.05L1213.27 127.284H1176.69L1113.65 272.908Z" fill="black"/>
<path fill-rule="evenodd" clip-rule="evenodd" d="M1368.41 130.385C1381.25 135.554 1392.53 142.919 1401.87 152.093C1411.21 161.267 1418.74 172.25 1424.31 184.655C1429.76 197.059 1432.48 210.627 1432.48 224.711C1432.48 226.649 1432.36 228.2 1432.23 229.363L1431.19 238.02H1425.48H1256.08C1257.37 245.256 1259.58 251.975 1262.82 258.048C1267.1 266.059 1272.55 273.037 1279.17 278.593C1285.78 284.279 1293.3 288.672 1301.61 291.773C1316.13 297.2 1332.61 297.717 1346.62 293.97C1352.71 292.29 1358.55 289.964 1363.74 286.863C1369.06 283.891 1373.86 280.144 1378.01 275.88C1382.16 271.745 1385.79 266.835 1388.77 261.666L1390.59 258.436H1426.91L1422.89 267.481C1418.99 276.009 1413.81 284.149 1407.58 291.385C1401.35 298.621 1393.96 304.953 1385.79 310.25C1377.49 315.548 1368.41 319.683 1358.55 322.655C1348.69 325.627 1338.05 327.177 1327.03 327.177C1312.24 327.177 1298.36 324.464 1285.65 319.166C1272.94 313.868 1261.78 306.503 1252.32 297.329C1242.85 288.155 1235.32 277.172 1230.01 264.767C1224.56 252.363 1221.83 238.795 1221.83 224.711C1221.83 210.627 1224.69 197.059 1230.01 184.655C1235.32 172.25 1242.85 161.267 1252.32 152.093C1261.78 142.919 1272.94 135.683 1285.65 130.385C1310.95 119.919 1342.59 119.79 1368.41 130.385ZM1256.47 209.076H1397.07C1395.78 202.744 1393.57 196.671 1390.72 191.115C1386.7 183.362 1381.51 176.643 1375.28 170.958C1369.05 165.272 1361.79 160.879 1353.62 157.649C1337.28 151.188 1316.91 151.317 1300.57 157.649C1292.27 160.879 1284.87 165.401 1278.65 170.958C1272.29 176.643 1266.97 183.362 1262.95 191.115C1259.97 196.671 1257.76 202.744 1256.47 209.076Z" fill="black"/>
<path d="M1519 173.154C1525.62 167.081 1533.27 162.3 1541.83 158.941C1556.62 153.126 1573.74 152.48 1588.66 156.486C1594.88 158.166 1600.85 160.621 1606.17 163.851C1611.62 167.081 1616.55 170.958 1620.83 175.48C1625.24 180.003 1628.87 185.171 1631.85 190.727L1633.67 194.216H1668.69L1665.19 185.43C1661.43 176.126 1656.37 167.469 1650.01 159.716C1643.66 151.963 1636.26 145.244 1627.96 139.817C1619.66 134.39 1610.32 129.997 1600.33 127.025C1576.85 120.048 1549.48 121.21 1527.17 130.514C1514.46 135.812 1503.31 143.048 1493.97 152.222C1484.5 161.396 1477.11 172.379 1471.66 184.784C1466.34 197.188 1463.49 210.756 1463.49 224.84C1463.49 238.924 1466.21 252.492 1471.66 264.896C1476.98 277.301 1484.5 288.284 1493.84 297.458C1503.18 306.632 1514.46 313.997 1527.17 319.295C1539.89 324.593 1553.77 327.306 1568.42 327.306C1579.45 327.306 1590.21 325.756 1600.2 322.784C1610.32 319.683 1619.53 315.419 1627.83 309.992C1636.13 304.565 1643.66 297.846 1649.88 290.093C1656.24 282.34 1661.3 273.683 1664.93 264.508L1668.43 255.722H1633.54L1631.72 259.082C1628.61 264.767 1624.85 269.935 1620.57 274.329C1616.16 278.851 1611.23 282.728 1605.78 285.829C1600.46 288.93 1594.49 291.385 1588.27 293.194C1573.48 297.2 1556.62 296.553 1541.83 290.739C1533.27 287.509 1525.62 282.728 1519 276.655C1512.39 270.582 1507.07 263.087 1503.18 254.301C1499.29 245.643 1497.21 235.823 1497.21 224.84C1497.21 214.115 1499.16 204.166 1503.05 195.508C1507.2 186.722 1512.52 179.227 1519 173.154Z" fill="black"/>
<path d="M1773.5 292.807C1769.22 291.515 1765.45 289.189 1762.08 285.958C1758.71 282.599 1755.99 277.947 1753.78 272.003C1751.58 265.801 1750.41 257.661 1750.41 247.84V158.683H1819.54V127.284H1750.41V72.7559L1721.74 73.0143L1716.81 126.121L1683.09 129.222V158.683H1716.68V247.84C1716.68 261.795 1718.37 273.812 1721.87 283.632C1725.37 293.711 1730.43 301.852 1736.66 308.183C1743.01 314.515 1750.67 319.037 1759.23 321.75C1767.53 324.464 1776.61 325.756 1786.34 325.756H1827.07L1827.33 295.003H1787.89C1783.09 295.003 1778.17 294.228 1773.5 292.807Z" fill="black"/>
<path d="M2005.55 229.234C2005.55 251.846 2000.49 268.773 1990.63 279.627C1980.65 290.352 1966.38 295.65 1946.79 295.65C1926.95 295.65 1912.42 290.352 1902.69 279.498C1892.83 268.515 1887.9 251.717 1887.9 229.363V127.284H1854.18V229.751C1854.18 245.644 1856.25 259.728 1860.53 271.745C1864.81 284.02 1871.04 294.357 1879.08 302.498C1887.12 310.768 1897.11 316.97 1908.66 321.105C1919.94 325.11 1932.78 327.178 1946.79 327.178C1960.8 327.178 1973.64 325.11 1984.93 321.105C1996.47 316.97 2006.33 310.768 2014.5 302.498C2022.54 294.357 2028.77 283.891 2033.05 271.745C2037.2 259.728 2039.41 245.644 2039.41 229.751V127.284H2005.68V229.234H2005.55Z" fill="black"/>
<path d="M2233.58 244.869C2231.12 239.183 2227.75 234.144 2223.47 230.009C2219.45 226.004 2214.52 222.644 2209.07 219.931C2203.88 217.346 2198.43 215.279 2192.73 213.599C2187.15 211.919 2181.44 210.627 2175.73 209.723C2170.16 208.818 2164.71 208.043 2159.39 207.397C2150.05 206.622 2141.88 205.459 2134.74 204.037C2128 202.616 2122.42 200.936 2118.01 198.74C2114.12 196.931 2111.27 194.605 2109.45 191.891C2107.76 189.436 2106.86 186.335 2106.86 182.459C2106.86 178.97 2107.63 175.352 2109.06 171.863C2110.49 168.504 2112.95 165.532 2116.2 162.818C2119.7 159.975 2124.37 157.65 2130.33 155.841C2136.43 154.032 2144.08 152.998 2153.03 152.998C2159.26 152.998 2165.1 153.773 2170.29 155.195C2175.34 156.616 2179.75 158.554 2183.39 161.009C2186.89 163.335 2189.48 166.178 2191.56 169.408C2193.5 172.638 2194.54 176.127 2194.67 180.004L2194.93 186.206H2228.14V179.745C2228.14 171.476 2226.32 163.593 2222.69 156.487C2219.06 149.509 2213.87 143.307 2207.38 138.138C2200.9 133.099 2193.11 129.223 2184.03 126.38C2175.08 123.666 2164.97 122.245 2154.07 122.245C2139.67 122.245 2127.22 123.925 2117.1 127.155C2106.86 130.515 2098.3 135.037 2091.81 140.593C2085.19 146.279 2080.39 152.998 2077.54 160.363C2074.69 167.599 2073.26 174.964 2073.26 182.459C2073.26 189.695 2074.43 196.155 2076.89 201.582C2079.23 207.009 2082.47 211.79 2086.49 215.667C2090.38 219.543 2095.05 222.773 2100.24 225.228C2105.04 227.554 2110.36 229.492 2115.81 231.043C2121.12 232.594 2126.7 233.756 2132.28 234.532C2137.73 235.307 2142.92 235.953 2148.1 236.599C2157.05 237.633 2165.23 239.054 2172.36 240.605C2179.24 242.155 2185.2 244.223 2190 246.678C2194.41 248.874 2197.78 251.588 2200.12 254.818C2202.19 257.79 2203.23 261.279 2203.23 265.801C2203.23 274.717 2199.08 281.695 2190.65 287.122C2181.44 293.066 2166.91 296.167 2147.59 296.167C2141.1 296.167 2134.87 295.262 2129.17 293.324C2123.46 291.386 2118.4 288.931 2114.12 285.83C2109.97 282.858 2106.73 279.498 2104.39 275.622C2102.19 272.004 2101.02 268.386 2100.89 264.639L2100.76 258.307H2067.42V264.768C2067.42 272.521 2069.37 280.273 2073.39 287.768C2077.28 295.133 2082.73 301.852 2089.73 307.667C2096.61 313.352 2105.04 318.133 2114.64 321.622C2124.24 325.111 2135.13 326.92 2146.94 326.92C2160.82 326.92 2173.27 325.627 2184.16 322.914C2195.32 320.2 2204.79 316.324 2212.44 311.155C2220.35 305.858 2226.58 299.139 2230.86 291.257C2235.14 283.375 2237.22 274.33 2237.22 264.509C2237.48 257.273 2236.18 250.554 2233.58 244.869Z" fill="black"/>
<path d="M140.428 374.211L137.056 368.397C136.926 368.267 136.926 368.009 136.796 367.88L136.667 367.621C136.018 366.717 135.499 365.683 134.721 364.52C116.043 336.869 54.9485 243.705 65.4551 151.576C73.2378 80.3795 135.759 52.5985 183.622 64.2278C187.773 65.2615 220.979 71.8514 219.812 104.672C219.163 122.115 208.397 141.498 173.505 156.486C157.421 163.335 162.998 161.784 138.742 169.278C126.549 173.026 118.896 173.801 117.988 174.189C116.951 174.576 116.172 175.481 116.172 176.644C116.172 178.065 117.34 179.228 118.767 179.228H122.788C122.917 179.228 123.177 179.228 123.306 179.228C146.006 179.486 208.657 167.857 239.917 149.509C262.357 136.846 282.333 116.43 282.333 86.5817C282.333 61.3851 269.362 33.9918 226.427 13.0592C200.355 0.267011 148.989 -9.2948 93.2134 15.1266C46.5172 35.6715 17.0727 82.9637 8.90089 108.031C-7.8319 159.458 -0.308632 208.559 25.8931 255.335C53.2622 304.048 81.9285 336.739 131.478 373.048C132.775 373.953 134.462 375.503 136.018 376.666C137.186 377.442 137.834 377.829 138.353 377.7C138.353 377.7 138.353 377.7 138.483 377.7C139.78 377.7 140.818 376.666 140.818 375.374C140.818 374.987 140.558 374.599 140.299 374.211H140.428Z" fill="#305DFF"/>
<path d="M301.4 81.1551C300.881 80.2506 299.973 79.6045 298.806 79.6045C297.249 79.6045 295.952 80.8966 295.952 82.4472C295.952 82.5764 295.952 82.5764 295.952 82.7056C299.584 109.84 303.476 227.812 198.539 293.453C191.534 297.846 189.978 292.29 189.329 290.352C183.881 272.133 186.087 235.178 191.145 195.509C191.275 194.088 191.534 191.891 191.534 191.762C191.016 190.47 185.827 194.217 182.195 197.706C171.818 208.043 155.475 235.048 147.303 271.099C136.666 320.976 148.6 373.824 156.512 386.616C159.236 391.009 160.533 391.785 165.852 388.813C191.275 375.245 205.543 362.841 223.573 347.335C262.746 312.318 288.17 276.268 305.292 240.863C328.25 194.346 330.974 131.936 301.4 81.9303V81.1551Z" fill="#FCD400"/>
</svg>
