<?xml version="1.0" encoding="UTF-8"?>
<!DOCTYPE svg PUBLIC "-//W3C//DTD SVG 1.1//EN" "http://www.w3.org/Graphics/SVG/1.1/DTD/svg11.dtd">
<!-- Creator: CorelDRAW X7 -->
<svg xmlns="http://www.w3.org/2000/svg" xml:space="preserve" width="103.721mm" height="21.938mm" version="1.1" style="shape-rendering:geometricPrecision; text-rendering:geometricPrecision; image-rendering:optimizeQuality; fill-rule:evenodd; clip-rule:evenodd"
viewBox="0 0 10372 2194"
 xmlns:xlink="http://www.w3.org/1999/xlink"
 enable-background="new 0 0 595.275 841.89">
 <defs>
  <style type="text/css">
   <![CDATA[
    .fil1 {fill:black}
    .fil0 {fill:#1C407B}
   ]]>
  </style>
 </defs>
 <g id="Layer_x0020_1">
  <metadata id="CorelCorpID_0Corel-Layer"/>
  <path class="fil0" d="M1663 1364c0,58 -47,104 -104,104 -57,0 -104,-46 -104,-104l0 -235 1 -456c1,-64 42,-106 103,-105 57,0 104,46 104,103l0 693zm-104 161c57,0 104,47 104,104 0,57 -47,104 -104,104 -57,0 -104,-47 -104,-104 0,-57 47,-104 104,-104zm-168 -318l-266 469c-26,51 -88,71 -139,46 -36,-19 -57,-55 -57,-93l-1 0 0 -800 -678 1203c-26,51 -89,71 -140,44 -50,-26 -70,-88 -44,-139l871 -1575c16,-37 52,-63 95,-63 58,0 104,46 104,104l0 820 255 -462 0 446 0 0z"/>
  <path class="fil0" d="M1097 2194c-605,0 -1097,-492 -1097,-1097 0,-605 492,-1097 1097,-1097 605,0 1097,492 1097,1097 0,605 -492,1097 -1097,1097zm0 -1995c-495,0 -898,403 -898,898 0,495 403,898 898,898 495,0 898,-403 898,-898 0,-495 -403,-898 -898,-898z"/>
  <path class="fil0" d="M2627 1437l0 -980 98 0c12,0 21,1 27,3 6,2 13,9 18,19l339 604c6,11 11,23 16,34 5,12 10,24 15,36 5,-12 10,-25 15,-37 5,-12 10,-23 16,-34l333 -603c6,-11 12,-17 18,-19 7,-2 16,-3 28,-3l98 0 0 980 -116 0 0 -720c0,-10 0,-20 0,-31 1,-11 1,-23 2,-34l-336 613c-11,21 -27,31 -48,31l-19 0c-22,0 -38,-10 -48,-31l-344 -615c1,12 2,24 3,35 1,11 1,22 1,32l0 720 -116 0 0 0zm1325 0l392 -980 135 0 392 980 -103 0c-12,0 -21,-3 -29,-9 -7,-6 -13,-13 -16,-22l-92 -237 -440 0 -92 237c-3,8 -8,15 -16,21 -7,7 -17,10 -28,10l-103 0zm276 -364l366 0 -154 -399c-5,-12 -10,-26 -15,-41 -5,-16 -9,-32 -14,-50 -5,18 -10,35 -14,51 -5,15 -10,29 -15,41l-154 398zm835 364l338 -504 -324 -476 133 0c9,0 16,1 21,4 4,4 9,8 12,14l256 393c3,-10 8,-21 14,-32l242 -358c4,-7 8,-12 13,-16 5,-3 11,-5 18,-5l126 0 -325 470 337 510 -132 0c-10,0 -18,-3 -24,-8 -5,-5 -10,-11 -13,-17l-264 -411c-3,10 -7,19 -12,27l-256 384c-4,6 -9,12 -15,17 -5,5 -12,8 -21,8l-124 0zm1175 -980l0 735 132 0 0 -735 -132 0zm0 849l0 131 132 0 0 -131 -132 0zm559 131l0 -980 131 0 0 868 424 0 0 112 -555 0 0 0zm877 0l0 -980 604 0 0 108 -472 0 0 324 382 0 0 105 -382 -1 0 336 473 0 -1 108 -604 0zm884 -490c0,-74 12,-141 35,-203 23,-62 56,-115 98,-159 42,-44 93,-78 152,-102 58,-25 123,-37 195,-37 70,0 131,11 185,34 53,22 100,52 141,91l-44 60c-3,4 -6,8 -11,10 -4,3 -10,5 -17,5 -8,0 -18,-5 -30,-14 -12,-8 -28,-18 -47,-29 -19,-11 -43,-20 -72,-29 -29,-9 -64,-13 -106,-13 -51,0 -97,9 -139,26 -42,18 -78,43 -108,77 -30,33 -54,74 -71,121 -17,48 -25,102 -25,162 0,61 8,116 26,164 18,47 42,88 72,121 30,33 66,58 107,75 41,17 86,26 134,26 30,0 56,-2 79,-5 24,-3 45,-8 65,-16 20,-7 39,-16 56,-27 17,-11 34,-24 51,-39 8,-7 16,-10 23,-10 7,0 14,3 19,8l53 56c-40,46 -89,83 -146,109 -57,26 -127,39 -208,39 -70,0 -134,-12 -192,-36 -57,-25 -106,-59 -147,-103 -40,-44 -72,-97 -94,-159 -23,-61 -34,-129 -34,-203zm1046 -378l0 -112 768 0 0 112 -318 0 0 868 -131 0 0 -868 -319 0z"/>
  <path class="fil1" d="M10254 1760l59 176 -118 0 59 -176zm-91 271l25 -74 132 0 25 74 27 0 -104 -299 -27 0 -104 299 26 0zm-83 -90l0 16c0,33 -30,56 -73,56 -43,0 -73,-23 -73,-56l0 -151c0,-33 30,-56 73,-56 43,0 73,23 73,56l0 16 25 0 0 -15c0,-46 -41,-78 -98,-78 -58,0 -99,32 -99,78l0 149c0,46 41,78 99,78 57,0 98,-32 98,-78l0 -15 -25 0zm-226 69l-135 0 0 -117 123 0 0 -21 -123 0 0 -119 135 0 0 -21 -160 0 0 299 160 0 0 -21zm-407 21l0 -138 148 0 0 138 25 0 0 -299 -25 0 0 140 -148 0 0 -141 -25 1 0 299 25 0zm-184 -302c-57,0 -98,32 -98,78l0 15 26 0 0 -16c0,-33 30,-56 72,-56 38,0 64,20 64,48l0 20c0,28 -30,48 -73,48l-23 0 0 21 34 0c43,0 73,21 73,51l0 22c0,32 -31,53 -74,53 -44,0 -73,-23 -73,-56l0 -16 -26 0 0 15c0,46 40,78 99,78 58,0 99,-30 99,-73l0 -20c0,-33 -25,-57 -63,-66 32,-10 53,-31 53,-58l0 -20c0,-40 -37,-68 -90,-68zm-338 302l150 -253 0 253 25 0 0 -299 -22 0 -151 254 0 -254 -25 0 0 299 23 0zm-178 -153c43,0 69,23 69,57l0 19c0,33 -26,56 -69,56l-67 0 0 -131 67 0 0 -1zm0 153c58,0 94,-32 94,-78l0 -17c0,-46 -36,-79 -94,-79l-67 0 0 -104 135 0 0 -21 -160 0 0 299 92 0 0 0zm-280 -74c0,33 -30,56 -73,56 -43,0 -74,-23 -74,-56l0 -151c0,-33 31,-56 74,-56 43,0 73,23 73,56l0 151zm25 -1l0 -149c0,-46 -41,-78 -98,-78 -58,0 -99,32 -99,78l0 149c0,46 41,78 99,78 57,0 98,-32 98,-78zm-231 -224l-143 0 0 299 26 0 0 -278 117 0 0 -21zm-201 278l-135 0 0 -117 123 0 0 -21 -123 0 0 -119 135 0 0 -21 -160 0 0 299 160 0 0 -21zm-260 -278l0 278 -130 0 0 -278 -25 0 0 278 -130 0 0 -278 -26 0 0 299 336 0 0 -299 -25 0zm-470 28l59 176 -117 0 58 -176zm-91 271l25 -74 132 0 26 74 26 0 -104 -299 -27 0 -104 299 26 0zm-154 -278c44,0 71,19 71,46l0 19c0,28 -27,48 -71,48l-55 0 0 -114 55 0 0 1zm11 134c44,0 71,22 71,54l0 17c0,31 -27,52 -71,52l-66 0 0 -123 66 0zm-91 144l92 0c58,0 95,-30 95,-72l0 -16c0,-32 -22,-58 -58,-68 30,-11 47,-32 47,-59l0 -18c0,-39 -37,-66 -95,-66l-81 0 0 299 0 0zm-322 -204l0 -18c0,-33 27,-57 70,-57l61 0 0 131 -61 0c-43,0 -70,-23 -70,-56zm156 -95l-86 0c-58,0 -96,32 -96,78l0 16c0,39 27,68 71,76l-76 129 27 0 73 -127 62 0 0 127 25 0 0 -299zm-252 0l-171 0 0 39c0,232 -15,242 -55,242l-4 0 0 21 4 0c66,0 79,-21 79,-263l0 -19 122 0 0 279 25 0 0 -299 0 0zm-435 39l0 -18 120 0 0 257 -154 0c23,-24 34,-81 34,-239zm145 -39l-169 0 0 39c0,186 -19,223 -36,239l-30 0 0 84 25 0 0 -63 230 0 0 63 25 0 0 -84 -45 0 0 -278zm-530 95l0 -18c0,-33 27,-57 70,-57l61 0 0 131 -61 0c-43,0 -70,-23 -70,-56zm157 -95l-87 0c-58,0 -95,32 -95,78l0 16c0,39 27,68 70,76l-75 129 26 0 74 -127 61 0 0 127 26 0 0 -299zm-428 299l150 -253 0 253 26 0 0 -299 -23 0 -150 254 0 -254 -25 0 0 299 22 0zm-269 0l0 -138 147 0 0 138 25 0 0 -299 -25 0 0 140 -147 0 0 -141 -26 1 0 299 26 0zm-84 -21l-135 0 0 -117 123 0 0 -21 -123 0 0 -119 135 0 0 -21 -160 0 0 299 160 0 0 -21zm-260 -278l0 278 -130 0 0 -278 -25 0 0 278 -130 0 0 -278 -26 0 0 299 336 0 0 -299 -25 0zm-369 278l-135 0 0 -117 123 0 0 -21 -123 0 0 -119 135 0 0 -21 -160 0 0 299 160 0 0 -21zm-317 -257c44,0 71,23 71,56l0 18c0,33 -27,56 -71,56l-63 0 0 -130 63 0 0 0zm1 151c57,0 95,-32 95,-78l0 -16c0,-46 -38,-78 -95,-78l-90 0 0 299 26 0 0 -127 64 0zm-240 106l-135 0 0 -117 123 0 0 -21 -123 0 0 -119 135 0 0 -21 -160 0 0 299 160 0 0 -21zm-260 21l25 0 0 -299 -25 0 0 299zm-136 -151c42,0 70,23 70,56l0 18c0,33 -28,56 -70,56l-65 0 0 -130 65 0 0 0zm-90 151l90 0c57,0 95,-32 95,-78l0 -16c0,-46 -38,-78 -95,-78l-65 0 0 -128 -25 0 0 300zm-248 0l0 -138 148 0 0 138 25 0 0 -299 -25 0 0 140 -148 0 0 -141 -25 1 0 299 25 0zm-316 0l0 -244 88 187 15 0 90 -189 0 246 23 0 0 -299 -21 0 -99 205 -98 -205 -22 0 0 299 24 0zm-281 -299l99 211 -18 44c-6,13 -20,23 -40,23l-13 0 0 24 13 0c33,0 52,-15 62,-40l113 -262 -26 0 -79 184 -86 -184 -25 0 0 0z"/>
 </g>
</svg>
