<svg xmlns="http://www.w3.org/2000/svg" viewBox="0 0 185.66 31.88"><defs><style>.cls-1{fill:#e18d47;}.cls-2{fill:#5d9cb1;}.cls-3{fill:#3d372f;}</style></defs><title>Asset 1</title><g id="Layer_2" data-name="Layer 2"><g id="Layer_1-2" data-name="Layer 1"><rect class="cls-1" x="13.79" y="12.71" width="2.34" height="6.44"/><path class="cls-2" d="M20.76,9.58v7.77c0,2.25-.62,2.61-3.19,4.12L4.9,29.14a3,3,0,0,1-1.39.49H3.44c-.76-.05-1.13-.64-1.13-1.81V4a1.85,1.85,0,0,1,.41-1.35,1.16,1.16,0,0,1,.86-.36,2.58,2.58,0,0,1,1.33.47L7.71,4.5l2.2,1.39V3.23L6.1.81A4.75,4.75,0,0,0,3.46,0,3.24,3.24,0,0,0,.92,1.15,4.37,4.37,0,0,0,0,4V27.89a4.39,4.39,0,0,0,.93,2.9,3.25,3.25,0,0,0,2.51,1.09h0a5.27,5.27,0,0,0,2.64-.81l12.06-7.31.6-.35c2.68-1.57,4.3-2.52,4.3-6.05V9.58Z"/><path class="cls-2" d="M9.16,22.29V14.52c0-2.25.62-2.61,3.2-4.12L25,2.74a3,3,0,0,1,1.39-.49h.07c.77,0,1.14.63,1.14,1.81V27.9a1.85,1.85,0,0,1-.42,1.35,1.15,1.15,0,0,1-.86.36A2.58,2.58,0,0,1,25,29.14l-2.8-1.77c-1.36-.85-1.94-1.23-2.2-1.38v2.65l3.81,2.42a4.71,4.71,0,0,0,2.64.82A3.25,3.25,0,0,0,29,30.72a4.34,4.34,0,0,0,.92-2.82V4A4.36,4.36,0,0,0,29,1.09,3.2,3.2,0,0,0,26.48,0h0a5.14,5.14,0,0,0-2.63.81L11.78,8.11l-.6.36C8.5,10,6.88,11,6.88,14.52v7.77Z"/><path class="cls-3" d="M48.08,6.49H45.45L39.12,22.25l0,0h2.6l1.37-3.42h7.41l1.36,3.4v0h2.61L48.09,6.51Zm1.68,10.29h-6l3-7.59Z"/><path class="cls-3" d="M68.4,10.47a4.89,4.89,0,0,0-3.68,1.85,3.1,3.1,0,0,0-3.07-1.85A5,5,0,0,0,58.24,12V10.74H56.12V22.29h2.12V14A3.7,3.7,0,0,1,61,12.4c1.24,0,1.87.71,1.87,2.12v7.77H65V14a3.78,3.78,0,0,1,2.77-1.57c1.24,0,1.87.71,1.87,2.12v7.77h2.11V14C71.71,11.7,70.57,10.47,68.4,10.47Z"/><polygon class="cls-3" points="94.42 12.32 94.43 12.32 94.43 10.74 85.25 10.74 86.02 12.65 91.6 12.65 85.67 20.64 85.64 20.7 85.64 22.29 94.52 22.29 94.52 20.41 88.42 20.41 94.42 12.32"/><path class="cls-3" d="M78.9,10.74H74.35l.77,1.91h3.55c1.59,0,2.63.85,2.63,2.17v1.24a5,5,0,0,0-3.51-1.25,3.83,3.83,0,0,0-4.1,3.87,3.92,3.92,0,0,0,4.1,3.89,5.12,5.12,0,0,0,3.51-1.28v1h2.11V14.7C83.41,12.19,81.76,10.74,78.9,10.74Zm2.4,8.94a3.61,3.61,0,0,1-2.89,1.26,2.27,2.27,0,1,1,0-4.5A3.61,3.61,0,0,1,81.3,17.7Z"/><rect class="cls-3" x="96.95" y="10.74" width="2.12" height="11.55"/><path class="cls-3" d="M98,9.53a1.36,1.36,0,1,0-1.35-1.35A1.36,1.36,0,0,0,98,9.53Z"/><path class="cls-3" d="M107.84,10.47a5.79,5.79,0,0,0-3.79,1.6V10.74h-2.11V22.29h2.11V14a4.22,4.22,0,0,1,3.12-1.6c1.6,0,2.31.74,2.31,2.39v7.5h2.11v-8C111.59,11.74,110.33,10.47,107.84,10.47Z"/><path class="cls-3" d="M122.54,10.74v1.35A4.76,4.76,0,0,0,119,10.47c-3.13,0-5.16,2.35-5.16,6s2,6,5.16,6a4.79,4.79,0,0,0,3.56-1.63v.95c0,2.86-2.38,3.17-3.39,3.17h-3.53l-.81,1.91h4.34c2.06,0,5.51-.66,5.51-5v-11Zm0,8.09a4,4,0,0,1-3.14,1.69c-2.06,0-3.39-1.59-3.39-4.06s1.33-4.06,3.39-4.06a4,4,0,0,1,3.14,1.67Z"/><rect class="cls-3" x="158.06" y="10.74" width="2.12" height="11.55"/><path class="cls-3" d="M159.11,9.53a1.36,1.36,0,1,0,0-2.71,1.37,1.37,0,0,0-1.35,1.36A1.34,1.34,0,0,0,159.11,9.53Z"/><path class="cls-3" d="M169,10.47a5.76,5.76,0,0,0-3.78,1.6V10.74h-2.12V22.29h2.12V14a4.18,4.18,0,0,1,3.11-1.6c1.6,0,2.31.74,2.31,2.39v7.5h2.12v-8C172.71,11.74,171.44,10.47,169,10.47Z"/><path class="cls-3" d="M183.55,10.74v1.35A4.72,4.72,0,0,0,180,10.47c-3.14,0-5.17,2.35-5.17,6s2,6,5.17,6a4.78,4.78,0,0,0,3.55-1.63v.95c0,2.86-2.37,3.17-3.39,3.17h-3.53l-.8,1.91h4.33c2.05,0,5.5-.66,5.5-5v-11Zm0,8.09a4,4,0,0,1-3.14,1.69c-2.06,0-3.39-1.59-3.39-4.06s1.33-4.06,3.39-4.06a4,4,0,0,1,3.14,1.67Z"/><polygon class="cls-3" points="139.26 13.13 130.63 13.13 130.63 6.49 128.32 6.49 128.32 22.29 130.63 22.29 130.63 15.22 139.26 15.22 139.26 22.29 141.56 22.29 141.56 6.49 139.26 6.49 139.26 13.13"/><path class="cls-3" d="M145.87,9.53a1.36,1.36,0,1,0-1.35-1.35A1.34,1.34,0,0,0,145.87,9.53Z"/><rect class="cls-3" x="144.82" y="10.74" width="2.11" height="11.55"/><path class="cls-3" d="M152,12.21V10.74h-2.12V22.29H152v-8a3.91,3.91,0,0,1,2.83-1.63,3.13,3.13,0,0,1,.65.06l.24.05v-2.2h-.19A4.76,4.76,0,0,0,152,12.21Z"/></g></g></svg>