<?xml version="1.0" encoding="utf-8"?>
<!-- Generator: Adobe Illustrator 19.0.0, SVG Export Plug-In . SVG Version: 6.00 Build 0)  -->
<svg version="1.1" id="Layer_1" xmlns="http://www.w3.org/2000/svg" xmlns:xlink="http://www.w3.org/1999/xlink" x="0px" y="0px"
	 viewBox="-249.8 129 1091.2 244" style="enable-background:new -249.8 129 1091.2 244;" xml:space="preserve">
<style type="text/css">
	.st0{fill:#481335;}
</style>
<g>
	<path class="st0" d="M735.1,355.8v-50.1c0-17.2,3.2-28.1,13.5-37.3c13.1-11.9,31.4-11.7,31.4-11.7v-37.1
		c-39.1,0-46.7,21.7-46.7,21.7l-11.2-18.3h-23.4v132.8H735.1z M5.2,359.3L5.2,359.3c34.8,0,43.9-21.7,43.9-21.7l11.2,18.3h23.4
		V223.1H47.3V289c0,17.2-5.3,28.4-13.7,33.7c-4.1,2.7-10.7,3.9-16.9,3.9c-21,0-26.3-11.9-26.3-31.6v-71.9h-36.6v82.6
		C-46.1,342.8-27.6,359.3,5.2,359.3 M475.3,219.6C475.5,219.6,475.5,219.6,475.3,219.6c-34.8,0-43.9,21.7-43.9,21.7l-11-18.3H397
		v132.8h36.4v-65.7c0-17.2,5.3-28.4,13.7-33.7c4.1-2.7,10.7-3.9,16.9-3.9c21,0,26.3,11.9,26.3,31.6v71.7h36.4v-82.6
		C526.6,236.1,508.2,219.6,475.3,219.6 M273.6,219.6c-33.6,0-43.3,19.9-43.5,20.1l-0.7,1.6l-0.9-1.4c-9.1-13.7-22-20.2-43.5-20.2
		c-33.6,0-43.3,19.9-43.5,20.1l-0.7,1.6l-11.2-18.3h-23.4v18.3v27.5v87h36.4v-65.7c0-25.7,8.9-37.6,27.7-37.6
		c16.7,0,24.5,9.9,24.5,31.2v72.1h36.4v-66.6c0-25,8.7-36.8,27.2-36.8c10.8,0,25,3.2,25,31.6v71.7h36.4v-82.6
		C320,236.1,305.6,219.6,273.6,219.6 M-150.7,317.9V169.7h-37.8v186.1h129.8v-37.8H-150.7z M330.3,169.7l27,27l27-27l-27-27
		L330.3,169.7z M338.4,222.9h37.8v132.8h-37.8V222.9z M611.7,219.6c-21.5,0-39.8,7.1-53.1,20.6c-12.4,12.6-19.2,30.2-19.2,49.2
		c0,19,6.7,36.6,19.2,49.2c13.1,13.5,31.6,20.8,53.1,20.8c42.6,0,72.4-28.8,72.4-70S654.3,219.6,611.7,219.6 M611.5,328.4
		c-20.8,0-35.7-16.3-35.7-38.9c0-22.2,15.3-38.9,35.7-38.9c20.8,0,36.2,16.7,36.2,38.9C647.7,311.9,632.5,328.4,611.5,328.4"/>
</g>
</svg>
