<svg xmlns="http://www.w3.org/2000/svg" width="509.12" height="151.782" viewBox="0 0 509.12 151.782">
  <defs>
    <style>
      .cls-1 {
        fill: #4e00ff;
        fill-rule: evenodd;
      }
    </style>
  </defs>
  <path id="Shape_4_copy_4" data-name="Shape 4 copy 4" class="cls-1" d="M904.325,689.785c-11.714,0-19.964,4.62-25.244,12.375l-0.33-7.92a2.473,2.473,0,0,0-2.64-2.475H857.8a2.338,2.338,0,0,0-2.475,2.475V801.486a2.338,2.338,0,0,0,2.475,2.475h20.294a2.473,2.473,0,0,0,2.64-2.475V764.2c5.28,6.6,13.035,10.395,23.594,10.395,22.6,0,38.114-18.314,38.114-42.4C942.439,708.265,926.929,689.785,904.325,689.785Zm-5.445,61.873c-11.054,0-18.479-7.755-18.479-19.634,0-11.55,7.425-19.3,18.479-19.3,10.725,0,18.81,7.755,18.81,19.47C917.69,744.068,909.605,751.658,898.88,751.658Zm55.977,20.954h20.294a2.473,2.473,0,0,0,2.64-2.475V657.117a2.473,2.473,0,0,0-2.64-2.475H954.857a2.338,2.338,0,0,0-2.475,2.475v113.02A2.338,2.338,0,0,0,954.857,772.612Zm117.353-80.847h-18.32a2.476,2.476,0,0,0-2.64,2.475L1050.92,702c-5.28-7.59-13.53-12.21-25.24-12.21-22.44,0-37.948,18.48-37.948,42.4,0,24.089,15.508,42.4,37.948,42.4,11.55,0,19.8-4.62,25.24-12.21l0.33,7.755a2.476,2.476,0,0,0,2.64,2.475h18.15a2.619,2.619,0,0,0,2.81-2.475v-75.9A2.476,2.476,0,0,0,1072.21,691.765Zm-41.08,59.893c-10.73,0-18.81-7.59-18.81-19.469,0-11.715,8.08-19.47,18.81-19.47,11.05,0,18.64,7.755,18.64,19.3C1049.77,743.9,1042.18,751.658,1031.13,751.658Zm105.14-61.873c-11.55,0-19.14,5.775-23.92,13.86l-0.66-9.24c0-1.98-.99-2.64-2.48-2.64h-19.47a2.337,2.337,0,0,0-2.47,2.475v75.9a2.337,2.337,0,0,0,2.47,2.475h20.13a2.47,2.47,0,0,0,2.64-2.475V729.219c0-10.725,5.28-16.335,14.02-16.335,8.91,0,13.53,5.61,13.53,16.335v40.918a2.476,2.476,0,0,0,2.64,2.475h19.97a2.476,2.476,0,0,0,2.64-2.475V723.279C1165.31,702.16,1153.1,689.785,1136.27,689.785Zm69,84.807c16.33,0,30.69-8.58,30.85-25.244,0.33-12.21-7.75-19.3-17.82-23.264l-12.21-4.785c-3.63-1.485-6.43-3.63-6.43-6.6,0-2.475,1.48-5.279,6.43-5.279,4.46,0,8.91,2.309,14.19,6.434,1.49,0.99,2.64,1.155,3.8,0l8.41-9.9c0.66-.99,1.16-2.31.17-3.465a36.429,36.429,0,0,0-27.89-12.705c-15.51,0-29.03,9.075-29.03,24.914,0,11.22,6.92,18.15,17.48,22.274l10.56,4.29c5.45,2.145,7.26,3.96,7.26,7.095,0,3.63-2.97,5.28-7.42,5.28-5.78,0-11.22-2.475-18.32-7.59-1.32-.825-2.8-1.32-4.12.825l-6.6,9.24c-1.15,1.65-1.32,3.629-.49,4.784C1180.85,768.982,1191.57,774.592,1205.27,774.592ZM834,721a10,10,0,1,1-10,10A10,10,0,0,1,834,721Zm-22.367,43.827c0,29.864-22.429,41.609-42.063,41.609-12.209,0-23.924-3.3-32.338-9.735a3.629,3.629,0,0,1-.825-4.95l5.114-10.064c0.99-1.815,2.475-2.64,4.455-1.485a57.859,57.859,0,0,0,7.627,3.338c10.316,2.306,31.572,4.32,34.941-16.893v-6.41c-5.114,6.6-12.869,10.56-23.924,10.56-22.6,0-37.618-16.664-37.618-40.588,0-23.594,15.014-40.424,37.783-40.424,11.22,0,18.975,3.96,24.089,10.725l0.33-6.27a2.338,2.338,0,0,1,2.475-2.475h18.48a2.338,2.338,0,0,1,2.474,2.475Zm-41.9-52.438c-10.559,0-18.149,6.93-18.149,17.82,0,11.054,7.59,17.984,18.149,17.984,10.395,0,17.82-6.93,17.82-17.984C787.555,719.319,780.13,712.389,769.735,712.389Z" transform="translate(-727 -654.656)"/>
</svg>
