<svg width="176" height="56" viewBox="0 0 176 56" fill="none" xmlns="http://www.w3.org/2000/svg">
<path d="M36.0666 29.9206H43.1367C44.1408 29.8793 45.1465 29.9116 46.146 30.0174C48.3689 30.3203 50.6207 31.3174 50.6207 34.0562C50.6207 36.349 49.2919 37.4218 47.6859 37.771V37.9099C50.0081 38.3306 51.3409 39.5927 51.3409 42.0791C51.3409 46.1599 47.5079 47.2874 44.3992 47.4389C43.6417 47.4389 42.6689 47.4389 42.0149 47.4389H36.0666V29.9206ZM41.0339 44.1279H43.0497C44.7552 44.1279 46.4316 43.6063 46.4316 41.9403C46.4316 40.3752 45.165 39.8367 42.8055 39.8367H41.0214L41.0339 44.1279ZM41.1373 36.7277H42.6358C44.7055 36.7277 45.9142 36.307 45.9142 34.9565C45.9142 33.8837 45.165 33.2737 43.1449 33.2737H41.1249L41.1373 36.7277Z" fill="white"/>
<path d="M11.5489 47.8046C4.06902 47.8046 0 42.3354 0 35.4358C0 28.4899 4.78514 22.7935 12.6458 22.7935C14.7155 22.7935 16.5369 23.0712 18.114 23.9042V28.3847C16.5297 27.3847 14.6969 26.8664 12.8321 26.8912C7.50058 26.8912 5.41847 30.8837 5.41847 35.0908C5.41847 39.7775 8.018 43.505 12.3519 43.505C14.225 43.5074 16.0651 43.0035 17.6835 42.0451L18.9833 45.5875C16.7869 47.0702 14.2019 47.8457 11.5655 47.813L11.5489 47.8046ZM95.9636 47.8046C90.4292 47.8046 87.5937 43.6691 87.5937 38.7384C87.5937 33.2145 91.3523 29.5669 96.3775 29.5669C98.5962 29.5669 99.7635 30.0171 100.682 30.5724V34.5355C99.6653 33.7146 98.3961 33.2842 97.0978 33.3196C94.2623 33.3196 92.5196 35.4232 92.5196 38.4943C92.5196 41.2374 93.8483 43.9131 97.0232 43.9131C98.2013 43.8365 99.3472 43.4914 100.376 42.9034L101.535 46.1344C99.8534 47.1779 97.9331 47.7579 95.9636 47.8172V47.8046ZM111.279 33.875V47.4554H106.358V33.875H101.572V29.9161H116.677L115.435 33.875H111.279ZM134.944 31.9734C134.944 38.0863 134.704 41.2794 133.611 42.7393C133.046 43.471 132.227 43.9556 131.322 44.094L132.688 47.813C134.204 47.7437 135.646 47.126 136.753 46.0713C138.326 44.5105 138.844 42.5331 139.079 40.4464C139.299 38.5557 139.414 36.6539 139.423 34.75V33.875H143.269V47.4554H148.19V29.9161H134.944V31.9734ZM23.342 40.0552C23.4455 42.4195 25.6353 43.8752 27.9243 43.8752C29.5801 43.8752 30.8592 43.5639 32.813 42.6131L33.9058 45.7768C31.8766 47.0992 29.5153 47.7989 27.1047 47.792C20.9495 47.792 18.412 43.3451 18.412 38.7257C18.412 33.795 21.3096 29.5543 26.4756 29.5543C31.1945 29.5543 34.477 33.0967 34.477 38.5154V40.0425L23.342 40.0552ZM26.3514 33.2355C24.3686 33.2355 23.2386 35.0403 23.2386 36.639H29.4476C29.3442 34.9562 28.4211 33.2355 26.339 33.2355H26.3514ZM57.2437 40.0762C57.3472 42.4406 59.5369 43.8962 61.826 43.8962C63.4817 43.8962 64.765 43.5849 66.7146 42.6341L67.8074 45.7978C65.7786 47.1211 63.417 47.8209 61.0064 47.813C54.8552 47.813 52.3137 43.3661 52.3137 38.7468C52.3137 33.8161 55.2112 29.5753 60.3772 29.5753C65.092 29.5753 68.3745 33.1177 68.3745 38.5364V40.0636L57.2437 40.0762ZM60.253 33.2355C58.2702 33.2355 57.1236 35.0193 57.1236 36.6012H63.3327C63.2292 34.9183 62.302 33.1976 60.2199 33.1976L60.253 33.2355ZM126.111 45.9156C125.485 46.5413 124.742 47.0327 123.925 47.3609C123.109 47.689 122.236 47.847 121.359 47.8256C118.08 47.8256 115.617 45.6001 115.617 42.1251C115.617 38.4102 118.561 36.5002 122.932 36.3614L125.829 36.2562V35.9112C125.829 34.0685 124.364 33.3407 122.659 33.3407C121.117 33.3333 119.603 33.7537 118.279 34.5565L116.776 31.498C119.136 29.9371 121.388 29.588 123.747 29.588C128.301 29.588 130.722 31.4265 130.722 36.05V47.4554H126.893L126.111 45.9156ZM123.627 39.605C121.508 39.6765 120.523 40.4044 120.523 41.7086C120.523 43.0127 121.442 43.8962 123.114 43.8962C124.067 43.9418 125.007 43.6603 125.784 43.0969V39.5461L123.627 39.605ZM74.8816 47.0726V54.4728L69.9557 56V29.9161H74.0951L74.6415 31.5106C75.9041 30.5051 77.3777 29.5669 79.2901 29.5669C83.2556 29.5669 86.3643 32.6213 86.3643 38.183C86.3643 43.3914 83.2887 47.8046 78.1973 47.8046C77.0515 47.8356 75.9154 47.5844 74.8858 47.0726H74.8816ZM74.8816 35.1918V43.4966C75.4998 43.9382 76.2371 44.1748 76.9927 44.1739C80.3415 44.1739 81.4343 41.0817 81.4343 38.0947C81.4426 34.4976 80.3042 33.2355 78.2966 33.2355C77.001 33.2355 75.4653 34.3125 74.8816 35.2128V35.1918Z" fill="white"/>
<path d="M155.157 35.6252V29.1631L150.235 30.7113V47.485H156.523C161.101 47.485 165.373 46.2228 165.373 41.4057C165.373 37.308 161.925 35.642 157.686 35.642L155.157 35.6252ZM155.157 43.9973V39.1002H156.813C158.559 39.1002 160.472 39.3779 160.472 41.4604C160.472 43.5429 158.816 43.9847 156.883 43.9847L155.157 43.9973Z" fill="white"/>
<path d="M172.832 18.452C173.154 18.3393 173.458 18.1791 173.734 17.9766C174.222 16.6907 174.637 15.3773 174.976 14.043C175.419 12.3344 175.728 10.5928 175.899 8.83463C176.034 7.43558 176.034 6.02659 175.899 4.62755C175.767 3.33177 175.436 2.01495 174.658 1.26188C173.879 0.508818 172.613 0.168044 171.371 0.0544532C169.991 -0.0423951 168.605 -0.0100043 167.231 0.151216C167.534 0.290356 167.813 0.476272 168.059 0.702343C168.821 1.40913 169.173 2.61656 169.326 3.79875C169.447 4.73858 169.49 5.68715 169.454 6.63433C169.374 8.57365 169.084 10.4981 168.589 12.3728C168.216 13.8675 167.722 15.3281 167.111 16.7397C167.891 17.232 168.708 17.661 169.554 18.0229C170.651 18.4773 171.855 18.7675 172.832 18.452Z" fill="white"/>
<path d="M154.88 14.872C154.812 15.2139 154.797 15.5644 154.834 15.9111C155.686 16.9691 156.595 17.9776 157.558 18.9318C158.8 20.183 160.138 21.331 161.561 22.3648C162.686 23.1742 163.882 23.8782 165.133 24.4683C166.296 25.011 167.587 25.3602 168.614 25.0741C169.641 24.7881 170.56 23.812 171.292 22.7308C172.077 21.5696 172.747 20.3323 173.292 19.037C173.013 19.2483 172.703 19.4131 172.373 19.525C171.396 19.8447 170.191 19.5502 169.107 19.1043C168.245 18.7371 167.415 18.2996 166.623 17.7959C165.015 16.7532 163.523 15.5358 162.173 14.1652C161.086 13.0894 160.088 11.9243 159.189 10.6817C158.382 11.1252 157.611 11.6331 156.883 12.2005C155.952 12.9367 155.099 13.8539 154.88 14.872Z" fill="white"/>
<path d="M166.892 0.841204C166.644 0.623411 166.365 0.444724 166.064 0.311112C164.717 0.523067 163.383 0.816683 162.07 1.19039C160.396 1.64388 158.76 2.23047 157.177 2.94474C155.921 3.52727 154.723 4.23172 153.6 5.04828C152.553 5.81397 151.58 6.77739 151.315 7.83337C151.051 8.88935 151.435 10.202 151.986 11.3926C152.583 12.653 153.298 13.852 154.122 14.9728C154.082 14.622 154.098 14.2669 154.167 13.921C154.387 12.8987 155.24 11.9815 156.167 11.2537C156.915 10.678 157.708 10.1658 158.539 9.72235C160.231 8.82383 162.017 8.11836 163.862 7.61881C165.312 7.19968 166.793 6.90277 168.291 6.73111C168.325 5.79374 168.282 4.85515 168.163 3.92499C168.01 2.7428 167.645 1.53537 166.892 0.841204Z" fill="white"/>
</svg>
