<?xml version="1.0" encoding="UTF-8"?>
<svg width="200" height="37" viewBox="0 0 200 37" fill="none" xmlns="http://www.w3.org/2000/svg">
  <path d="M14.5629 36.3885H21.9715V21.8938H36.5345V14.52H21.9715V0.0252686H14.5629V14.52H0V21.8938H14.5629V36.3885Z"
        fill="url(#paint0_linear)"></path>
  <path d="M51.351 0H43.9424V36.4081H51.351V0Z" fill="url(#paint1_linear)"></path>
  <path d="M87.1627 7.41658H65.541V12.1879H73.9608V28.9917H78.7426V12.1879H87.1627V7.41658Z" fill="black"></path>
  <path d="M101.466 7.41658H91.9111V12.1879H96.6849V28.9917H101.466V7.41658Z" fill="black"></path>
  <path
      d="M123.16 28.9917C121.09 28.9917 119.214 28.553 117.53 27.6754C115.867 26.7788 114.551 25.5484 113.584 23.9842C112.635 22.4008 112.162 20.6172 112.162 18.6333C112.162 16.6494 112.635 14.8753 113.584 13.311C114.551 11.7278 115.867 10.4974 117.53 9.61981C119.214 8.72318 121.1 8.27493 123.19 8.27493C124.95 8.27493 126.537 8.58021 127.948 9.19064C129.381 9.80107 130.579 10.6785 131.548 11.8232L128.528 14.57C127.155 13.0059 125.452 12.2237 123.422 12.2237C122.164 12.2237 121.042 12.5004 120.056 13.0536C119.068 13.5877 118.295 14.3412 117.734 15.314C117.193 16.287 116.921 17.3934 116.921 18.6333C116.921 19.8732 117.193 20.9796 117.734 21.9526C118.295 22.9254 119.068 23.6885 120.056 24.2417C121.042 24.7759 122.164 25.0429 123.422 25.0429C125.452 25.0429 127.155 24.2512 128.528 22.668L131.548 25.415C130.579 26.5786 129.381 27.4655 127.948 28.076C126.517 28.6864 124.921 28.9917 123.16 28.9917Z"
      fill="black"></path>
  <path d="M135.079 7.41658H139.605V28.6484H135.079V7.41658Z" fill="black"></path>
  <path
      d="M151.912 28.8772C150.267 28.8772 148.787 28.5434 147.472 27.8758C146.175 27.189 145.161 26.2447 144.425 25.0429C143.69 23.8411 143.322 22.4772 143.322 20.951C143.322 19.425 143.69 18.061 144.425 16.8593C145.161 15.6575 146.175 14.7227 147.472 14.055C148.787 13.3683 150.267 13.0249 151.912 13.0249C153.556 13.0249 155.027 13.3683 156.322 14.055C157.619 14.7227 158.635 15.6575 159.37 16.8593C160.105 18.061 160.472 19.425 160.472 20.951C160.472 22.4772 160.105 23.8411 159.37 25.0429C158.635 26.2447 157.619 27.189 156.322 27.8758C155.027 28.5434 153.556 28.8772 151.912 28.8772ZM151.912 25.2146C153.072 25.2146 154.021 24.833 154.756 24.0701C155.51 23.2879 155.888 22.2482 155.888 20.951C155.888 19.654 155.51 18.6238 154.756 17.8607C154.021 17.0787 153.072 16.6875 151.912 16.6875C150.752 16.6875 149.794 17.0787 149.039 17.8607C148.284 18.6238 147.908 19.654 147.908 20.951C147.908 22.2482 148.284 23.2879 149.039 24.0701C149.794 24.833 150.752 25.2146 151.912 25.2146Z"
      fill="black"></path>
  <path
      d="M179.903 13.2538V28.6484H175.608V26.817C175.008 27.4846 174.292 27.9998 173.461 28.3622C172.629 28.7055 171.729 28.8772 170.762 28.8772C168.711 28.8772 167.086 28.2954 165.887 27.1318C164.686 25.9682 164.087 24.2417 164.087 21.9526V13.2538H168.615V21.2945C168.615 23.7743 169.669 25.0143 171.777 25.0143C172.861 25.0143 173.731 24.671 174.389 23.9842C175.048 23.2784 175.376 22.2388 175.376 20.8653V13.2538H179.903Z"
      fill="black"></path>
  <path
      d="M200 7.41658V28.6484H195.676V26.8742C194.554 28.2095 192.929 28.8772 190.8 28.8772C189.331 28.8772 187.995 28.553 186.796 27.9044C185.615 27.2558 184.687 26.3305 184.01 25.1288C183.333 23.927 182.994 22.5344 182.994 20.951C182.994 19.3678 183.333 17.9752 184.01 16.7734C184.687 15.5716 185.615 14.6464 186.796 13.9978C187.995 13.3492 189.331 13.0249 190.8 13.0249C192.793 13.0249 194.351 13.6449 195.472 14.8849V7.41658H200ZM191.584 25.2146C192.725 25.2146 193.674 24.833 194.428 24.0701C195.182 23.2879 195.56 22.2482 195.56 20.951C195.56 19.654 195.182 18.6238 194.428 17.8607C193.674 17.0787 192.725 16.6875 191.584 16.6875C190.424 16.6875 189.466 17.0787 188.712 17.8607C187.956 18.6238 187.58 19.654 187.58 20.951C187.58 22.2482 187.956 23.2879 188.712 24.0701C189.466 24.833 190.424 25.2146 191.584 25.2146Z"
      fill="black"></path>
  <defs>
    <linearGradient id="paint0_linear" x1="25.6758" y1="54.6121" x2="25.6758" y2="-18.204"
                    gradientUnits="userSpaceOnUse">
      <stop offset="0.270042" stop-color="#005BB0"></stop>
      <stop offset="0.773726" stop-color="#00ADEB"></stop>
    </linearGradient>
    <linearGradient id="paint1_linear" x1="25.6753" y1="54.6121" x2="25.6753" y2="-18.204"
                    gradientUnits="userSpaceOnUse">
      <stop offset="0.270042" stop-color="#005BB0"></stop>
      <stop offset="0.773726" stop-color="#00ADEB"></stop>
    </linearGradient>
  </defs>
</svg>