<svg id="Layer_1" data-name="Layer 1" xmlns="http://www.w3.org/2000/svg" xmlns:xlink="http://www.w3.org/1999/xlink" viewBox="0 0 130 130"><defs><style>.cls-1{fill:url(#New_Gradient_Swatch_1);}.cls-2{fill:url(#New_Gradient_Swatch_1-2);}.cls-3{fill:url(#New_Gradient_Swatch_1-3);}.cls-4{fill:url(#New_Gradient_Swatch_1-4);}.cls-5{fill:url(#New_Gradient_Swatch_1-5);}.cls-6{fill:#006848;}.cls-7{fill:url(#New_Gradient_Swatch_1-6);}.cls-8{fill:url(#New_Gradient_Swatch_1-7);}.cls-9{fill:url(#New_Gradient_Swatch_1-8);}.cls-10{fill:url(#New_Gradient_Swatch_1-9);}.cls-11{fill:url(#New_Gradient_Swatch_1-10);}.cls-12{fill:url(#New_Gradient_Swatch_1-11);}</style><linearGradient id="New_Gradient_Swatch_1" x1="-0.57" y1="89.1" x2="102.37" y2="20.55" gradientUnits="userSpaceOnUse"><stop offset="0" stop-color="#00afff"/><stop offset="1" stop-color="#1f5bd7"/></linearGradient><linearGradient id="New_Gradient_Swatch_1-2" x1="5.55" y1="98.28" x2="108.49" y2="29.74" xlink:href="#New_Gradient_Swatch_1"/><linearGradient id="New_Gradient_Swatch_1-3" x1="11.02" y1="106.47" x2="113.96" y2="37.92" xlink:href="#New_Gradient_Swatch_1"/><linearGradient id="New_Gradient_Swatch_1-4" x1="14.42" y1="111.61" x2="117.36" y2="43.06" xlink:href="#New_Gradient_Swatch_1"/><linearGradient id="New_Gradient_Swatch_1-5" x1="26.89" y1="50.51" x2="103.11" y2="50.51" xlink:href="#New_Gradient_Swatch_1"/><linearGradient id="New_Gradient_Swatch_1-6" x1="80.79" y1="25.51" x2="102.99" y2="25.51" xlink:href="#New_Gradient_Swatch_1"/><linearGradient id="New_Gradient_Swatch_1-7" x1="12.23" y1="108.5" x2="115.17" y2="39.95" xlink:href="#New_Gradient_Swatch_1"/><linearGradient id="New_Gradient_Swatch_1-8" x1="21.1" y1="121.83" x2="124.05" y2="53.28" xlink:href="#New_Gradient_Swatch_1"/><linearGradient id="New_Gradient_Swatch_1-9" x1="25.33" y1="128.18" x2="128.28" y2="59.64" xlink:href="#New_Gradient_Swatch_1"/><linearGradient id="New_Gradient_Swatch_1-10" x1="32.45" y1="138.87" x2="135.39" y2="70.32" xlink:href="#New_Gradient_Swatch_1"/><linearGradient id="New_Gradient_Swatch_1-11" x1="21.75" y1="122.62" x2="124.69" y2="54.07" xlink:href="#New_Gradient_Swatch_1"/></defs><path class="cls-1" d="M26.89,58.81h8.47c5,0,8.18,2.85,8.18,7.19v.06c0,4.82-3.87,7.34-8.61,7.34H30.66v6.91H26.89ZM35.06,70c2.85,0,4.64-1.6,4.64-3.84v-.06c0-2.52-1.82-3.84-4.64-3.84h-4.4V70Z"/><path class="cls-2" d="M46.8,58.82h3.74V80.31H46.8Z"/><path class="cls-3" d="M53.6,75.64v-.06c0-3.5,2.77-5.22,6.73-5.22a13.54,13.54,0,0,1,4.36.67v-.4c0-2.3-1.41-3.53-4-3.53a11.2,11.2,0,0,0-4.64,1L55,65.2a14,14,0,0,1,6.14-1.32,7.27,7.27,0,0,1,5.38,1.81,6.77,6.77,0,0,1,1.75,5v9.61H64.66v-2a6.55,6.55,0,0,1-5.28,2.37C56.34,80.65,53.6,78.9,53.6,75.64Zm11.15-1.17v-1.1a10.24,10.24,0,0,0-3.68-.65c-2.4,0-3.81,1-3.81,2.71v.06c0,1.57,1.38,2.46,3.16,2.46C62.88,78,64.75,76.53,64.75,74.47Z"/><path class="cls-4" d="M73.35,75.83V67.29h-2v-3.2h2V59.64h3.72v4.45h4.36v3.2H77.07v7.95a1.77,1.77,0,0,0,2,2,4.94,4.94,0,0,0,2.3-.55v3a6.43,6.43,0,0,1-3.35.83C75.29,80.59,73.35,79.39,73.35,75.83Z"/><rect class="cls-5" x="26.89" y="48.64" width="76.23" height="3.75"/><path class="cls-6" d="M81.11,31.22v11.2h6.82v-6.3H94.8a8.39,8.39,0,0,0,7.84-4.9Z"/><path class="cls-7" d="M100.55,23.07a7.46,7.46,0,0,0-5.07-2H80.79A9.34,9.34,0,0,0,81,22.76l.09.36s0,.09,0,.14a9.54,9.54,0,0,0,9.1,6.67h12.61A7.23,7.23,0,0,0,103,28.6a7.47,7.47,0,0,0-2.44-5.53"/><path class="cls-6" d="M69,23.34,64.23,33.7h-.49V21.09H57V42.42h5.76a3.89,3.89,0,0,0,3.53-2.25L71,29.82h.48v12.6h6.79V21.09H72.53A3.88,3.88,0,0,0,69,23.34"/><path class="cls-6" d="M37.39,23.89l2.83,9.81h.49l2.82-9.81a3.88,3.88,0,0,1,3.73-2.8H54V42.42H47.25V29.82h-.48l-3.88,12.6H38l-3.88-12.6h-.49v12.6H26.89V21.09h6.78a3.88,3.88,0,0,1,3.72,2.8"/><path class="cls-8" d="M26.89,86.72h16v3.45H30.66V96H41.51v3.44H30.66v8.76H26.89Z"/><path class="cls-9" d="M44.57,100.53v-.06a8.65,8.65,0,0,1,17.29-.07v.07a8.47,8.47,0,0,1-8.69,8.44A8.38,8.38,0,0,1,44.57,100.53Zm13.57,0v-.06a5,5,0,0,0-5-5.23,4.88,4.88,0,0,0-4.89,5.16v.07a5,5,0,0,0,4.95,5.19A4.87,4.87,0,0,0,58.14,100.53Z"/><path class="cls-10" d="M65.61,92h3.75v3.65c1-2.42,2.88-4.08,5.74-4v3.93h-.21c-3.26,0-5.53,2.12-5.53,6.42v6.18H65.61Z"/><path class="cls-11" d="M78.29,92H82v2.46A5.81,5.81,0,0,1,87,91.67a5.15,5.15,0,0,1,4.85,2.86,6.53,6.53,0,0,1,5.47-2.86c3.53,0,5.68,2.24,5.68,6.2v10.36H99.28V99c0-2.58-1.2-4-3.29-4s-3.47,1.41-3.47,4v9.16H88.8V99c0-2.52-1.23-3.93-3.29-3.93S82,96.59,82,99.07v9.16H78.29Z"/><rect class="cls-12" x="86.19" y="76.58" width="3.8" height="3.74"/></svg>