
<svg width="120" height="48" viewBox="0 0 120 48" fill="none" xmlns="http://www.w3.org/2000/svg">
<path d="M57.6328 42.3996C56.4896 42.3996 55.4151 42.1876 54.4091 41.7634C53.4031 41.3393 52.519 40.7502 51.7569 39.9962C51.01 39.2423 50.4156 38.3547 49.9736 37.3337C49.5468 36.3127 49.3334 35.2052 49.3334 34.0114C49.3334 32.8176 49.5468 31.7101 49.9736 30.6891C50.4156 29.6523 51.01 28.757 51.7569 28.003C52.519 27.249 53.4031 26.6599 54.4091 26.2358C55.4151 25.8117 56.4896 25.5996 57.6328 25.5996C58.8065 25.5996 59.8963 25.8117 60.9023 26.2358C61.9235 26.6599 62.8 27.249 63.5316 28.003C64.2785 28.757 64.8653 29.6445 65.2921 30.6655C65.7189 31.6866 65.9323 32.794 65.9323 33.9878C65.9323 35.1974 65.7189 36.3127 65.2921 37.3337C64.8653 38.3547 64.2785 39.2423 63.5316 39.9962C62.8 40.7502 61.9235 41.3393 60.9023 41.7634C59.8963 42.1876 58.8065 42.3996 57.6328 42.3996ZM57.6328 39.0066C58.2882 39.0066 58.8979 38.881 59.4619 38.6296C60.0411 38.3626 60.5441 38.0091 60.9709 37.5693C61.3977 37.1138 61.7254 36.5797 61.954 35.9671C62.1979 35.3545 62.3198 34.6947 62.3198 33.9878C62.3198 33.281 62.1979 32.6291 61.954 32.0321C61.7254 31.4195 61.3977 30.8933 60.9709 30.4535C60.5441 29.9979 60.0411 29.6445 59.4619 29.3932C58.8979 29.1261 58.2882 28.9926 57.6328 28.9926C56.9622 28.9926 56.3448 29.1261 55.7809 29.3932C55.2169 29.6445 54.7215 29.9979 54.2947 30.4535C53.868 30.8933 53.5326 31.4195 53.2888 32.0321C53.0601 32.6448 52.9458 33.3045 52.9458 34.0114C52.9458 34.7183 53.0601 35.378 53.2888 35.9906C53.5326 36.6033 53.868 37.1373 54.2947 37.5929C54.7215 38.0327 55.2169 38.3783 55.7809 38.6296C56.3448 38.881 56.9622 39.0066 57.6328 39.0066Z" fill="#212121"/>
<path d="M73.5531 28.4507C73.0349 28.4507 72.6462 28.5606 72.3871 28.7805C72.128 29.0005 71.9984 29.3617 71.9984 29.8644V29.9822H74.6506V32.904H71.9984V42.0697H68.8204V32.904H66.9913V29.9822H68.8204V29.8408C68.8204 28.5371 69.2014 27.5317 69.9636 26.8249C70.7409 26.118 71.8917 25.7645 73.4159 25.7645H74.6506V28.4507H73.5531Z" fill="#212121"/>
<path d="M82.1269 28.4507C81.6087 28.4507 81.22 28.5606 80.9609 28.7805C80.7018 29.0005 80.5722 29.3617 80.5722 29.8644V29.9822H83.2244V32.904H80.5722V42.0697H77.3942V32.904H75.5651V29.9822H77.3942V29.8408C77.3942 28.5371 77.7752 27.5317 78.5374 26.8249C79.3147 26.118 80.4655 25.7645 81.9897 25.7645H83.2244V28.4507H82.1269Z" fill="#212121"/>
<path d="M85.8298 28.9455C84.997 28.9455 84.3218 28.2703 84.3218 27.4375C84.3218 26.6046 84.997 25.9295 85.8298 25.9295H85.9919C86.8247 25.9295 87.4999 26.6046 87.4999 27.4375C87.4999 28.2703 86.8247 28.9455 85.9919 28.9455H85.8298ZM84.3218 42.0697V29.9822H87.4999V42.0697H84.3218Z" fill="#212121"/>
<path d="M100.242 39.2658C99.678 40.2083 98.9464 40.9623 98.0471 41.5278C97.163 42.0776 96.0732 42.3525 94.7776 42.3525C93.863 42.3525 93.0247 42.1876 92.2626 41.8577C91.5157 41.5278 90.8679 41.0801 90.3192 40.5146C89.7705 39.9491 89.3437 39.2894 89.0388 38.5354C88.734 37.7657 88.5816 36.941 88.5816 36.0613C88.5816 35.1817 88.734 34.357 89.0388 33.5873C89.3437 32.8176 89.7705 32.15 90.3192 31.5845C90.8679 31.019 91.5157 30.5713 92.2626 30.2414C93.0247 29.9115 93.863 29.7466 94.7776 29.7466C96.0732 29.7466 97.1706 30.0372 98.0699 30.6184C98.9845 31.1996 99.7161 31.9615 100.265 32.904L97.7727 34.5062C97.4678 34.0035 97.0944 33.5873 96.6524 33.2574C96.2104 32.9118 95.6235 32.739 94.8919 32.739C93.9621 32.739 93.2076 33.0453 92.6284 33.658C92.0644 34.2706 91.7825 35.0717 91.7825 36.0613C91.7825 37.0509 92.0644 37.8599 92.6284 38.4883C93.2076 39.1009 93.9621 39.4072 94.8919 39.4072C95.6235 39.4072 96.2104 39.2422 96.6524 38.9124C97.0944 38.5668 97.4678 38.1427 97.7727 37.64L100.242 39.2658Z" fill="#212121"/>
<path d="M112.278 39.4779C111.699 40.3732 110.952 41.0801 110.038 41.5985C109.138 42.1012 108.033 42.3525 106.722 42.3525C105.777 42.3525 104.924 42.1954 104.162 41.8812C103.415 41.5514 102.767 41.1115 102.218 40.5617C101.685 39.9962 101.273 39.3286 100.984 38.5589C100.694 37.7892 100.549 36.9567 100.549 36.0613C100.549 35.1974 100.694 34.3805 100.984 33.6108C101.288 32.8411 101.715 32.1735 102.264 31.608C102.813 31.0268 103.468 30.5713 104.23 30.2414C104.992 29.9115 105.831 29.7466 106.745 29.7466C107.675 29.7466 108.506 29.9037 109.237 30.2178C109.969 30.532 110.586 30.964 111.089 31.5138C111.607 32.0636 112.004 32.7155 112.278 33.4695C112.553 34.2077 112.69 35.0167 112.69 35.8964C112.69 36.132 112.682 36.3755 112.667 36.6268C112.652 36.8782 112.644 37.0195 112.644 37.0509H103.681C103.849 37.8207 104.2 38.4333 104.733 38.8888C105.282 39.3444 105.968 39.5721 106.791 39.5721C107.507 39.5721 108.117 39.4307 108.62 39.148C109.138 38.8495 109.565 38.4568 109.9 37.9699L112.278 39.4779ZM106.722 32.4327C105.975 32.4327 105.351 32.6291 104.848 33.0218C104.36 33.3988 104.009 33.9329 103.796 34.624H109.489C109.321 33.8857 108.978 33.3359 108.46 32.9746C107.942 32.6134 107.362 32.4327 106.722 32.4327Z" fill="#212121"/>
<path d="M55.6889 19.2C53.6851 19.2 52.1479 18.7499 51.0771 17.8497C50.0217 16.9346 49.4404 15.6819 49.3334 14.0917H52.8897C52.905 14.3917 52.9662 14.6842 53.0733 14.9693C53.1803 15.2393 53.3409 15.4869 53.5551 15.7119C53.7845 15.9219 54.0752 16.0945 54.427 16.2295C54.7941 16.3645 55.2453 16.432 55.7807 16.432C56.6831 16.432 57.3562 16.2745 57.7998 15.9594C58.2586 15.6444 58.4881 15.2468 58.4881 14.7668C58.4881 14.4667 58.3963 14.2192 58.2128 14.0241C58.0445 13.8291 57.8074 13.6641 57.5015 13.5291C57.1956 13.379 56.8361 13.259 56.4231 13.169C56.0254 13.064 55.6048 12.9665 55.1612 12.8765C54.534 12.7264 53.8916 12.5614 53.2339 12.3814C52.5761 12.1864 51.9796 11.9088 51.4442 11.5488C50.9089 11.1887 50.4653 10.7236 50.1135 10.1535C49.777 9.56845 49.6087 8.81833 49.6087 7.90319C49.6087 7.22808 49.7387 6.60548 49.9988 6.03539C50.2588 5.4503 50.6412 4.95523 51.146 4.55016C51.6507 4.1301 52.2626 3.80004 52.9815 3.56001C53.7157 3.31997 54.557 3.19995 55.5053 3.19995C56.469 3.19995 57.3179 3.32747 58.0521 3.58251C58.8017 3.82255 59.4288 4.1676 59.9336 4.61767C60.4536 5.05274 60.859 5.58532 61.1496 6.21542C61.4402 6.83052 61.6161 7.51313 61.6773 8.26324H58.098C58.0674 7.64815 57.8533 7.12306 57.4556 6.688C57.0579 6.25293 56.3772 6.03539 55.4136 6.03539C54.6947 6.03539 54.121 6.17042 53.6928 6.44046C53.2645 6.7105 53.0503 7.10056 53.0503 7.61064C53.0503 7.94069 53.1421 8.21823 53.3257 8.44327C53.5092 8.6533 53.7539 8.83333 54.0599 8.98336C54.3658 9.13338 54.7176 9.2609 55.1153 9.36591C55.5283 9.47093 55.9566 9.57595 56.4002 9.68096C57.0426 9.81598 57.6927 9.97351 58.3504 10.1535C59.0234 10.3336 59.6353 10.5886 60.1859 10.9187C60.7366 11.2487 61.1802 11.6838 61.5167 12.2239C61.8685 12.7639 62.0444 13.4691 62.0444 14.3392C62.0444 15.0443 61.9068 15.6969 61.6314 16.297C61.3561 16.8821 60.9431 17.3922 60.3924 17.8272C59.8571 18.2623 59.1917 18.5999 58.3963 18.8399C57.6162 19.0799 56.7137 19.2 55.6889 19.2Z" fill="#212121"/>
<path d="M74.7071 16.432C74.1258 17.2872 73.3763 17.9623 72.4585 18.4573C71.5561 18.9374 70.4471 19.1774 69.1316 19.1774C68.1833 19.1774 67.3267 19.0274 66.5619 18.7274C65.8124 18.4123 65.1623 17.9923 64.6117 17.4672C64.0763 16.9271 63.6633 16.2895 63.3727 15.5544C63.082 14.8193 62.9367 14.0241 62.9367 13.169C62.9367 12.3439 63.082 11.5638 63.3727 10.8286C63.6786 10.0935 64.1069 9.45593 64.6575 8.91584C65.2082 8.36076 65.8659 7.92569 66.6307 7.61064C67.3955 7.29559 68.2368 7.13807 69.1546 7.13807C70.0877 7.13807 70.9213 7.28809 71.6555 7.58814C72.3897 7.88818 73.0092 8.30075 73.514 8.82583C74.034 9.35091 74.4317 9.97351 74.7071 10.6936C74.9824 11.3987 75.1201 12.1714 75.1201 13.0115C75.1201 13.2365 75.1124 13.4691 75.0971 13.7091C75.0818 13.9491 75.0742 14.0842 75.0742 14.1142H66.0801C66.2483 14.8493 66.6001 15.4344 67.1355 15.8694C67.6862 16.3045 68.3745 16.522 69.2005 16.522C69.9194 16.522 70.5312 16.387 71.036 16.117C71.5561 15.8319 71.9844 15.4569 72.3209 14.9918L74.7071 16.432ZM69.1316 9.70347C68.3821 9.70347 67.755 9.891 67.2502 10.2661C66.7608 10.6261 66.4089 11.1362 66.1948 11.7963H71.9079C71.7396 11.0912 71.3955 10.5661 70.8754 10.221C70.3553 9.87599 69.7741 9.70347 69.1316 9.70347Z" fill="#212121"/>
<path d="M87.7236 16.2295C87.1576 17.1296 86.4234 17.8497 85.5209 18.3898C84.6338 18.9149 83.5401 19.1774 82.2399 19.1774C81.3222 19.1774 80.4809 19.0199 79.7161 18.7049C78.9666 18.3898 78.3165 17.9623 77.7658 17.4222C77.2152 16.8821 76.7869 16.252 76.4809 15.5319C76.175 14.7968 76.0221 14.0091 76.0221 13.169C76.0221 12.3289 76.175 11.5413 76.4809 10.8061C76.7869 10.071 77.2152 9.43342 77.7658 8.89334C78.3165 8.35326 78.9666 7.92569 79.7161 7.61064C80.4809 7.29559 81.3222 7.13807 82.2399 7.13807C83.5401 7.13807 84.6414 7.41561 85.5439 7.9707C86.4616 8.52578 87.1958 9.2534 87.7465 10.1535L85.2456 11.6838C84.9397 11.2037 84.5649 10.8061 84.1213 10.4911C83.6777 10.161 83.0889 9.99601 82.3546 9.99601C81.4216 9.99601 80.6644 10.2886 80.0832 10.8736C79.5172 11.4587 79.2342 12.2239 79.2342 13.169C79.2342 14.1142 79.5172 14.8868 80.0832 15.4869C80.6644 16.072 81.4216 16.3645 82.3546 16.3645C83.0889 16.3645 83.6777 16.207 84.1213 15.8919C84.5649 15.5619 84.9397 15.1568 85.2456 14.6767L87.7236 16.2295Z" fill="#212121"/>
<path d="M96.6481 18.9074V17.7597C96.2504 18.1798 95.7609 18.5098 95.1797 18.7499C94.5984 18.9899 93.9484 19.1099 93.2294 19.1099C92.5411 19.1099 91.914 18.9974 91.348 18.7724C90.7974 18.5473 90.3232 18.2323 89.9255 17.8272C89.5278 17.4222 89.2219 16.9346 89.0077 16.3645C88.7936 15.7944 88.6865 15.1568 88.6865 14.4517V7.3631H91.8528V13.9116C91.8528 14.6017 92.044 15.1643 92.4264 15.5994C92.8088 16.0195 93.3442 16.2295 94.0325 16.2295C94.8126 16.2295 95.4397 16.0045 95.9139 15.5544C96.3881 15.1043 96.6252 14.4742 96.6252 13.6641V7.3631H99.7915V18.9074H96.6481Z" fill="#212121"/>
<path d="M101.077 18.9074V7.3631H104.266V8.93835C104.664 8.41327 105.146 7.9932 105.712 7.67815C106.293 7.3631 106.951 7.20558 107.685 7.20558V10.3561C106.507 10.3561 105.643 10.6561 105.092 11.2562C104.557 11.8413 104.289 12.6364 104.289 13.6416V18.9074H101.077Z" fill="#212121"/>
<path d="M119.587 16.432C119.006 17.2872 118.256 17.9623 117.339 18.4573C116.436 18.9374 115.327 19.1774 114.012 19.1774C113.063 19.1774 112.207 19.0274 111.442 18.7274C110.692 18.4123 110.042 17.9923 109.492 17.4672C108.956 16.9271 108.543 16.2895 108.253 15.5544C107.962 14.8193 107.817 14.0241 107.817 13.169C107.817 12.3439 107.962 11.5638 108.253 10.8286C108.559 10.0935 108.987 9.45593 109.538 8.91584C110.088 8.36076 110.746 7.92569 111.511 7.61064C112.276 7.29559 113.117 7.13807 114.035 7.13807C114.968 7.13807 115.801 7.28809 116.535 7.58814C117.27 7.88818 117.889 8.30075 118.394 8.82583C118.914 9.35091 119.312 9.97351 119.587 10.6936C119.862 11.3987 120 12.1714 120 13.0115C120 13.2365 119.992 13.4691 119.977 13.7091C119.962 13.9491 119.954 14.0842 119.954 14.1142H110.96C111.128 14.8493 111.48 15.4344 112.015 15.8694C112.566 16.3045 113.254 16.522 114.08 16.522C114.799 16.522 115.411 16.387 115.916 16.117C116.436 15.8319 116.864 15.4569 117.201 14.9918L119.587 16.432ZM114.012 9.70347C113.262 9.70347 112.635 9.891 112.13 10.2661C111.641 10.6261 111.289 11.1362 111.075 11.7963H116.788C116.62 11.0912 116.275 10.5661 115.755 10.221C115.235 9.87599 114.654 9.70347 114.012 9.70347Z" fill="#212121"/>
<path d="M34.8262 3.70825H3.84045V33.1187C3.84045 33.1187 4.23434 34.3864 6.33507 36.1612C8.43579 37.936 19.5959 43.7673 19.5959 43.7673C19.5959 43.7673 29.443 38.443 31.9377 36.5415C34.4323 34.64 34.8262 33.1187 34.8262 33.1187V3.70825Z" fill="white"/>
<rect x="8.56714" y="8.7793" width="21.795" height="5.07077" rx="2" fill="black"/>
<rect x="8.56714" y="17.3992" width="21.795" height="5.07077" rx="2" fill="black"/>
<rect x="8.56714" y="26.0195" width="21.795" height="5.07077" rx="2" fill="black"/>
<path fill-rule="evenodd" clip-rule="evenodd" d="M0 0H38.6667V33.5751L38.552 34.0179L34.8262 33.1186V3.70809H3.84048V33.1186L0.161968 34.1841L0 33.6628V0ZM19.5959 43.7672C21.4724 47.0025 21.4725 47.0025 21.4727 47.0024L21.5885 46.9396C21.6629 46.8992 21.7718 46.8401 21.9108 46.7644C22.1887 46.613 22.5876 46.3952 23.0736 46.128C24.0448 45.5942 25.3681 44.8613 26.7725 44.0669C29.4581 42.5479 32.8134 40.5982 34.3174 39.4518C35.8843 38.2574 36.8999 37.0982 37.5506 36.118C37.8742 35.6306 38.1014 35.1967 38.2598 34.8372C38.3388 34.6578 38.4003 34.4979 38.4478 34.3602C38.4715 34.2914 38.4918 34.2283 38.509 34.1711C38.5176 34.1425 38.5255 34.1154 38.5326 34.0899C38.5362 34.0771 38.5396 34.0647 38.5428 34.0527L38.5475 34.035L38.5498 34.0264L38.5509 34.0221C38.5515 34.02 38.552 34.0179 34.8262 33.1186C34.8262 33.1186 34.4323 34.6398 31.9377 36.5413C29.4431 38.4429 19.5959 43.7672 19.5959 43.7672ZM19.5959 43.7672L21.4727 47.0024L19.6276 48L17.768 47.0284L19.5959 43.7672ZM19.5959 43.7672C19.5959 43.7672 8.43582 37.9358 6.33509 36.161C4.23437 34.3863 3.84048 33.1186 3.84048 33.1186C0.161968 34.1841 0.162553 34.186 0.163141 34.1879L0.164328 34.1917L0.166745 34.1993L0.171746 34.2151L0.182437 34.2479C0.189875 34.2705 0.197942 34.2943 0.206679 34.3193C0.224157 34.3692 0.244308 34.424 0.267476 34.4834C0.313834 34.6023 0.372148 34.7392 0.445094 34.8925C0.591212 35.1996 0.794666 35.5694 1.07566 35.9887C1.63958 36.8302 2.50124 37.8492 3.80612 38.9517C4.61492 39.635 5.98791 40.4891 7.28223 41.2572C8.67599 42.0844 10.3095 43.0027 11.8517 43.8513C13.3986 44.7024 14.8759 45.4958 15.9651 46.0756C16.5102 46.3657 16.9593 46.6031 17.2729 46.7683C17.4297 46.8509 17.5526 46.9154 17.6368 46.9596L17.7672 47.0279L17.768 47.0284C17.7682 47.0284 17.768 47.0284 19.5959 43.7672Z" fill="black"/>
<path d="M19.5959 12.8356V7.76487V3.70825H3.84045V33.1187C3.84045 33.1187 4.23434 34.3864 6.33507 36.1612C8.43579 37.936 19.5959 43.7673 19.5959 43.7673V34.5132V12.8356Z" fill="#FED810"/>
</svg>
