<?xml version="1.0" encoding="utf-8"?>
<!-- Generator: Adobe Illustrator 21.0.2, SVG Export Plug-In . SVG Version: 6.00 Build 0)  -->
<svg version="1.1" id="Layer_1" xmlns="http://www.w3.org/2000/svg" xmlns:xlink="http://www.w3.org/1999/xlink" x="0px" y="0px"
	 viewBox="0 0 266.3 49.4" style="enable-background:new 0 0 266.3 49.4;" xml:space="preserve">
<style type="text/css">
	.st0{fill:url(#SVGID_1_);}
	.st1{fill:#37343F;}
	.st2{fill:#7A2182;}
</style>
<g>
	
		<linearGradient id="SVGID_1_" gradientUnits="userSpaceOnUse" x1="-0.5205" y1="5.9116" x2="43.6773" y2="50.1093" gradientTransform="matrix(1 0 0 -1 0 52)">
		<stop  offset="0" style="stop-color:#31287C"/>
		<stop  offset="0.6" style="stop-color:#951B81"/>
		<stop  offset="1" style="stop-color:#B80E80"/>
	</linearGradient>
	<path class="st0" d="M22.8,0C10.2,0,0,10.2,0,22.8c0,6.5,2.8,12.4,7.2,16.6v10l6.3-5.8c2.8,1.3,6,2,9.3,2
		c12.6,0,22.8-10.2,22.8-22.8S35.4,0,22.8,0z M34.2,24c0,6.6-5.4,10.1-10.7,10.1l-0.2,0l-0.3,0c-5.3,0-10.7-3.5-10.7-10.1v-8.4
		c0-1.4,0.9-2.2,2.4-2.2c1.4,0,2.4,0.9,2.4,2.2V24c0,2.8,2.2,5.7,5.9,5.7v0c0.1,0,0.2,0,0.4,0c3.7,0,5.9-2.9,5.9-5.7v-8.4
		c0-1.3,1-2.2,2.4-2.2c1.5,0,2.4,0.9,2.4,2.2L34.2,24L34.2,24z"/>
	<g>
		<ellipse class="st1" cx="109.8" cy="4.7" rx="2.9" ry="2.8"/>
		<path class="st1" d="M62.7,10.5l-0.4,0l-0.2,0c-6.1,0-12.4,4-12.4,11.6v9.7c0,1.6,1.1,2.6,2.8,2.6c1.7,0,2.8-1.1,2.8-2.6v-9.7
			c0-3.2,2.6-6.6,6.8-6.6c0.2,0,0.4,0,0.5,0c4.3,0,6.9,3.3,6.9,6.6v9.7c0,1.5,1.2,2.6,2.8,2.6c1.7,0,2.8-1,2.8-2.6v-9.7
			C75.1,14.5,68.8,10.5,62.7,10.5z M62.6,15.2L62.6,15.2L62.6,15.2L62.6,15.2z M62.6,15.2L62.6,15.2L62.6,15.2L62.6,15.2z"/>
		<path class="st1" d="M107.2,12.6l0,19.9c0,1.5,1.3,2.2,2.6,2.2c1.3,0,2.5-0.8,2.5-2.2l0-19.9C112.3,9.7,107.2,9.7,107.2,12.6z"/>
		<path class="st1" d="M135.4,12.8c-2-1.5-4.5-2.3-7.1-2.3c-6.7,0-12.1,5.4-12.1,12.1c0,6.7,5.4,12.1,12.1,12.1
			c2.7,0,5.1-0.9,7.1-2.4c0.1,1.3,1.3,2.1,2.5,2.1c1.3,0,2.5-0.8,2.5-2.2V12.9C140.4,10,135.6,10,135.4,12.8z M128.2,29.8
			c-4,0-7.2-3.2-7.2-7.2c0-4,3.2-7.2,7.2-7.2c3.8,0,6.8,2.9,7.1,6.6v1.2C135,26.9,132,29.8,128.2,29.8z"/>
		<path class="st1" d="M78.7,3.9l0,18.5c0,2.1,0.3,4.5,1.3,6.5c0.6,1.1,1.5,2.3,3.5,3.7c2,1.5,4.7,2.2,7.4,2.2
			c6.7,0,12.1-5.4,12.1-12.1c0-6.7-5.4-12.1-12.1-12.1c-2.7,0-5.1,0.9-7.1,2.3V4C83.8,1.1,78.7,1,78.7,3.9z M83.8,23.2V22
			c0.3-3.7,3.4-6.6,7.1-6.6c4,0,7.2,3.2,7.2,7.2c0,4-3.2,7.2-7.2,7.2C87.2,29.8,84.1,26.9,83.8,23.2z"/>
		<path class="st1" d="M211.6,4v8.8c-2-1.5-4.5-2.3-7.1-2.3c-6.7,0-12.1,5.4-12.1,12.1c0,6.7,5.4,12.1,12.1,12.1
			c2.7,0,5.4-0.7,7.4-2.2c2-1.3,2.9-2.6,3.5-3.7c1.1-2,1.3-4.3,1.3-6.5l0-18.5C216.7,1,211.6,1.1,211.6,4z M204.5,29.8
			c-4,0-7.2-3.2-7.2-7.2c0-4,3.2-7.2,7.2-7.2c3.8,0,6.8,2.9,7.1,6.6v1.3C211.3,26.9,208.2,29.8,204.5,29.8z"/>
		<path class="st1" d="M189.8,22.6L189.8,22.6L189.8,22.6c0-6.7-5.5-12.1-12.1-12.1c-6.7,0-12.1,5.4-12.1,12.1v0
			c0,7.5,5.8,12.1,12.5,12.1c4.2,0,6.8-1.1,9.3-2.9c2.7-2,0.3-5.6-2.7-3.7c-1.8,1.2-2.7,1.9-6.5,1.9c-3.8,0-6.7-2.2-7.3-5.4h13.7
			l0,0l0,0h2.8c1.7,0,2.5-0.9,2.5-1.9C189.8,22.7,189.8,22.6,189.8,22.6z M170.9,20.4c0.9-3,3.5-5,6.8-5s5.9,2.1,6.8,5L170.9,20.4z"
			/>
		<g>
			<path class="st1" d="M149.8,17.2c0.1,3.9,13.2,2.1,13.2,10.4c0,4.7-4.1,7.1-8.9,7.2c-3.9,0-6.1-0.6-8.9-2.9
				c-2.6-2.1,0.5-5.3,2.8-3.9c1.6,1.1,3.3,2.3,5.9,2.4c2.4,0.1,3.9-0.4,4.1-2.1c0.4-3.9-13.1-2.3-13.1-10.9c0-4.5,3.9-7,8.7-7
				c3.7,0,6.4,1.3,8,3c1.5,1.4-0.4,4.7-3.2,2.8c-1.3-0.9-2.5-1.5-4.6-1.5C151.7,14.8,149.7,15.3,149.8,17.2z"/>
		</g>
	</g>
	<g>
		<path class="st2" d="M227.1,21.3v-5.5c1.3,0.9,2.8,1.5,4.5,1.5c4.2,0,7.6-3.4,7.6-7.6c0-4.2-3.4-7.6-7.6-7.6
			c-1.7,0-3.4,0.4-4.6,1.4c-1.3,0.8-1.8,1.6-2.2,2.3c-0.7,1.2-0.8,2.7-0.8,4l0,11.5C224,23.1,227.1,23.1,227.1,21.3z M231.6,5.2
			c2.5,0,4.5,2,4.5,4.5c0,2.5-2,4.5-4.5,4.5c-2.3,0-4.3-1.8-4.5-4.1V9.3C227.3,7,229.2,5.2,231.6,5.2z"/>
		<path class="st2" d="M258.7,2c4.2,0,7.6,3.4,7.6,7.6c0,4.2-3.4,7.6-7.6,7.6c-4.2,0-7.6-3.4-7.6-7.6C251.2,5.4,254.6,2,258.7,2z
			 M258.7,14.1c2.5,0,4.5-2,4.5-4.5s-2-4.5-4.5-4.5c-2.5,0-4.5,2-4.5,4.5S256.2,14.1,258.7,14.1z"/>
		<g>
			<path class="st2" d="M241.9,15.8V3.5c0-0.4,0.2-0.8,0.5-1.1S243,2,243.4,2c0.4,0,0.8,0.1,1.1,0.4c0.3,0.3,0.5,0.7,0.5,1.1v0.2
				c0.2-0.3,0.4-0.5,0.6-0.6c1.1-0.8,2.3-1.2,3.5-1.2c0,0,0.1,0,0.1,0c0.4,0,0.8,0.1,1.1,0.4c0.3,0.3,0.4,0.7,0.4,1.1
				c0,0.4-0.1,0.8-0.4,1.1c-0.3,0.3-0.6,0.5-1.1,0.5c-0.7,0-1.8,0.3-2.2,0.6c-0.6,0.4-1.9,1.7-1.9,3.6v6.4c0,0.4-0.1,0.8-0.4,1.1
				c-0.3,0.3-0.7,0.4-1.2,0.4c-0.4,0-0.9-0.1-1.2-0.4C241.9,16.6,241.9,16.2,241.9,15.8z"/>
		</g>
	</g>
</g>
</svg>
