<svg width="820" height="304" viewBox="0 0 820 304" xmlns="http://www.w3.org/2000/svg"><title>dark_logo</title><g fill="none" fill-rule="evenodd"><path d="M0 0h820v305.255H0z"/><g fill="#26292C"><path d="M109.3 152.362c0-18.052 9.781-24.48 18.931-24.48 11.229 0 18.773 9.766 18.773 24.312 0 16.59-9.597 24.001-19.089 24.001-12.799 0-18.615-12.368-18.615-23.833zm23.44-45.718c-13.351 0-21.08 6.055-24.808 10.234-.448-3.603-2.799-8.278-11.983-8.278H76v21.071h8.176c1.386 0 1.833.443 1.833 1.842v96.217h23.774v-36.112c0-.974-.018-1.886-.044-2.7 3.71 3.434 10.807 8.18 21.887 8.18 23.238 0 39.494-18.592 39.494-45.223 0-27.055-15.431-45.231-38.38-45.231"/><path d="M203.046 172.396V121.41c0-8.614-4.114-12.81-12.544-12.81h-21.247v21.07h8.184c1.378 0 1.825.452 1.825 1.842v50.809c0 8.747 3.983 12.81 12.518 12.81h21.273v-20.884h-8.184c-1.316 0-1.825-.532-1.825-1.85"/><path d="M260.306 176.195c-12.764 0-18.607-12.368-18.607-23.833 0-18.052 9.782-24.48 18.94-24.48 11.229 0 18.773 9.766 18.773 24.312 0 16.59-9.588 24.001-19.106 24.001m4.85-69.551c-13.368 0-21.08 6.055-24.825 10.234-.439-3.603-2.781-8.278-11.966-8.278h-19.957v21.071h8.176c1.377 0 1.824.443 1.824 1.842v96.217H242.2v-36.112c0-.974-.026-1.886-.052-2.7 3.693 3.434 10.816 8.18 21.887 8.18 23.247 0 39.485-18.592 39.485-45.223 0-27.055-15.422-45.231-38.362-45.231m65.168 32.742c2.579-8.49 9.026-13.307 17.94-13.307 7.158 0 12.667 5.498 13.64 13.307h-31.58zm17.94-32.74c-25.616 0-43.53 18.601-43.53 45.232 0 26.197 19.326 45.222 45.96 45.222 20.948 0 33.747-12.518 34.29-13.05l.957-.955-10.36-17.344-1.536 1.47c-.105.08-9.5 8.817-21.913 8.817-11.913 0-20.633-7.339-22.694-18.848h56.38l.132-1.576c.044-.213.508-5.32.508-7.818 0-24.612-15.351-41.15-38.195-41.15zm82.269 69.549c-11.308 0-18.624-9.553-18.624-24.32 0-14.36 7.615-23.992 18.949-23.992 12.851 0 18.615 11.96 18.615 23.833 0 18.06-9.79 24.48-18.94 24.48m42.397-3.799V88.831c0-8.614-4.167-12.81-12.711-12.81h-21.247V97.1h8.185c1.377 0 1.824.443 1.824 1.841v15.104c-3.508-3.196-10.36-7.401-22.159-7.401-23.071 0-39.169 18.6-39.169 45.231 0 27.056 15.422 45.223 38.371 45.223 13.115 0 20.677-6.144 24.37-10.43.482 3.737 2.877 8.464 11.772 8.464h20.598v-20.885h-8.01c-1.315 0-1.824-.53-1.824-1.85m62.74-64.94c-9.895 0-19.001 5.764-24.405 14.945v-1.975c0-7.844-4.29-11.828-12.711-11.828h-20.44v21.071h8.176c1.377 0 1.833.443 1.833 1.842v63.62H511.9v-34.626c0-4.56.579-8.95 1.701-13.014 3.58-11.943 13.089-16.193 20.782-16.193 2.729 0 4.711.292 4.746.301l1.983.301v-23.85l-1.448-.248c-.07-.018-2.087-.346-3.991-.346m39.278 64.939V121.41c0-8.614-4.096-12.81-12.527-12.81h-19.22v21.07h6.14c1.387 0 1.825.452 1.825 1.842v50.809c0 8.747 3.992 12.81 12.545 12.81h21.256v-20.884h-8.194c-1.316 0-1.825-.532-1.825-1.85"/><path d="M664.708 108.601h-12.685c-7.413 0-11.387 2.594-13.738 8.96l-15.5 43.69c-.536 1.62-1.036 3.436-1.466 5.18-.447-1.744-.982-3.586-1.57-5.206l-15.501-43.673c-2.377-6.436-6.22-8.95-13.729-8.95h-13.492v21.07h3.5c1.86 0 2.457.637 2.895 1.806l23.993 63.655h26.738l23.993-63.655c.438-1.169 1.053-1.806 2.912-1.806h3.65v-21.07zm23.002 30.785c2.606-8.49 9.028-13.307 17.932-13.307 7.176 0 12.676 5.498 13.65 13.307H687.71zm17.932-32.74c-25.607 0-43.512 18.601-43.512 45.232 0 26.197 19.308 45.222 45.942 45.222 20.957 0 33.765-12.518 34.3-13.05l.965-.955-10.334-17.344-1.58 1.47c-.078.08-9.526 8.817-21.895 8.817-11.922 0-20.642-7.339-22.703-18.848h56.398l.131-1.576c.027-.213.51-5.32.51-7.818 0-24.612-15.361-41.15-38.222-41.15zM201.42 76.026h-21.195v22.532h21.195zm371.916 0h-21.203v22.532h21.203z"/></g></g></svg>