<svg enable-background="new 0 0 100.7 22" viewBox="0 0 100.7 22" xmlns="http://www.w3.org/2000/svg"><path d="m12.1 6.2c5.2-1.5 9.3 2.3 9.6 8.2.8-5.3-1.2-9.3-3.5-11.2-1.1-.1-2.4-.2-3.5-.3-.6.7-2 2.6-2.6 3.3" fill="#a41e22"/><path d="m21.1 7.6c-2.4-4.7-6.7-2.6-9-1.1-4.8 3.2-7.3-3.8-1.6-5.6 3.4-1.1 9.4 1.9 10.6 6.7" fill="#ed1c24"/><path d="m14.3 14.3c-1.2 5.2-6.5 6.9-11.9 4.3 4.3 3.2 8.8 3.5 11.7 2.4.6-.9 1.3-2 1.9-2.9-.4-.8-1.4-2.9-1.7-3.8" fill="#659a41"/><path d="m8.7 21.4c5.4.2 5.6-4.6 5.4-7.2-.5-5.7 6.9-4.5 5.7 1.3-.7 3.5-6.3 7.2-11.1 5.9" fill="#a7cf38"/><path d="m5.9 12.3c-3.9-3.8-2.5-9.2 2.6-12.3-5 1.9-7.7 5.5-8.3 8.5.4 1 1 2.1 1.5 3.1.9.2 3.3.5 4.2.7" fill="#136d9a"/><path d="m2.8 3.8c-3 4.3 1 7.1 3.3 8.3 5.1 2.6.2 8.2-4.2 4.1-2.6-2.4-2.8-9 .9-12.4" fill="#2aace3"/><g fill="#fff"><path d="m56.8 15.5h2.8.1.2c.7 0 1.1.1 1.2.4.2.3.2.6.2 1.1 0 .7-.2 1.1-.5 1.2-.4.1-.9.2-1.7.2h-2.4zm0 6.4v-2.8h2.6.2s.1 0 .2 0c.4 0 .7 0 1.1-.1s.7-.2 1-.4c.2-.1.3-.3.4-.5s.1-.4.2-.6c0-.1 0-.2 0-.3s0-.2 0-.3 0-.1 0-.2 0-.2 0-.2c0-.3-.1-.5-.2-.8s-.3-.5-.5-.6-.4-.2-.6-.3-.4-.1-.6-.1c-.1 0-.2 0-.3 0h-4.4v7.1zm-2.8-2.1c0 .6-.2 1.1-.5 1.2-.3.2-.9.3-1.6.3h-1c-.7 0-1.3-.1-1.5-.3-.3-.2-.4-.6-.4-1.2v-5h-1v5c0 1 .3 1.6.9 1.9.6.2 1.5.3 2.6.3h.5s.3 0 .5 0c1 0 1.7-.2 2-.5s.5-.9.5-1.6v-5h-1zm-12.7-2.6c0-.8.2-1.3.4-1.4.3-.2.8-.3 1.6-.3h.3c1 0 1.6.1 2 .2.4.2.6.7.6 1.5v.6.6.6.6c0 .9-.2 1.4-.7 1.5-.4.2-1.1.3-2.1.3-.9 0-1.5-.1-1.7-.3s-.4-.7-.4-1.4v-1.1zm-1 2v.7c.1.9.4 1.5.9 1.7.5.3 1.3.4 2.3.4h.2.2.1.1.1c1.1 0 1.9-.2 2.3-.5s.6-1 .7-1.8c0-.4 0-.8 0-1.3v-1.3c0-1.1-.3-1.8-.9-2s-1.5-.4-2.7-.4h-.4c-1.4 0-2.3.3-2.5.9s-.4 1.4-.4 2.4v.4zm-6.6-3.7h3.2c.7 0 1.2.1 1.3.4.2.3.2.6.2 1.2 0 .5-.2.9-.5 1.1s-.8.3-1.5.3h-2.9zm0 6.4v-2.9h3c.6 0 1 .1 1.3.3s.4.5.4 1v1.6h1v-1.8c0-.4-.1-.7-.3-1-.2-.2-.6-.4-1.1-.4.8-.1 1.2-.3 1.4-.7s.2-.7.2-1.2c0-.8-.2-1.3-.6-1.6s-1.1-.5-2-.5h-4.2v7.1zm-5.6-2.8h2.9v.6c0 .7-.1 1.1-.4 1.3s-.8.3-1.7.3h-.5-.4c-.1 0-.2 0-.4 0-.1 0-.2 0-.4 0-.1 0-.2 0-.4 0-.6-.1-1-.3-1.1-.7s-.2-.8-.2-1.2v-1-.9c0-.8.2-1.4.4-1.6s.8-.3 1.8-.3h.9s.6 0 .9 0c.6 0 1 .2 1.1.4s.2.6.2 1h1v-.3c0-.6-.2-1-.5-1.3s-.8-.5-1.6-.5c-.2 0-.4 0-.5 0-.2 0-.4 0-.5 0-.2 0-.4 0-.5 0h-.5c-1.2 0-2 .2-2.4.6s-.7 1.1-.7 2v.5.5.5.5c0 1.1.3 1.8.8 2.1s1.5.5 2.9.5h.9c.3 0 .6 0 .9-.1.8-.1 1.3-.3 1.5-.8.2-.4.3-.9.3-1.5v-.5-.4c0-.1 0-.3 0-.4h-3.8z"/><path d="m91.9 1.7h4.3c.8 0 1.5.1 2 .3s.9.7 1 1.4c.1.4.1.8.1 1.2v1.2.5.5.5c0 .3-.1.7-.2 1-.1.2-.2.4-.4.7-.2.2-.5.4-.8.4-.3.1-.6.1-1 .2-.2 0-.3 0-.5 0h-.5-4zm4.7 8.8c1.9 0 3.1-.5 3.5-1.4.4-1 .6-2 .6-3.3v-1c0-1.4-.3-2.4-.9-3.1s-1.8-1.1-3.6-1.1h-5.7v9.9zm-8.6-9.8v9l-6.9-9h-2.2v9.9h1.3v-9l6.9 8.9h2.2v-9.8zm-11.7 9.8h1.4v-9.8h-1.4zm-2.4-9.8-3.5 9-3.3-9h-2l-3.3 9-3.4-9h-1.4l3.8 9.9h2.1l3.3-8.9 3.2 8.9h2.1l3.9-9.9h-1.5zm-19.2 0-3.7 4.6-3.7-4.6h-1.6l4.5 5.7v4.1h1.4v-4.1l4.7-5.7zm-19.6 0v9.9h1.4v-4.6h1.2l5.6 4.6h1.9l-6.3-5.1 5.6-4.8h-1.8l-5 4.3h-1.2v-4.3zm-1.3 2.6c0-1.3-.4-2-1.3-2.3-.8-.2-1.9-.4-3.2-.4h-.3c-1.3 0-2.3.2-3.1.4s-1.1 1-1.1 2.2c0 1.3.5 2.1 1.4 2.3 1 .3 2.1.4 3.4.4h.6.6c.8 0 1.3.2 1.6.4.2.2.4.6.4 1.3 0 .8-.2 1.4-.6 1.5-.4.2-1.1.3-2.1.3h-1.2c-1.1 0-1.9-.1-2.2-.4s-.5-.9-.5-1.8h-1.3v.1.1.1.1c0 1.2.4 2 1.3 2.3.8.3 1.9.4 3.2.4h.6.6.6.6c1.1-.1 1.8-.4 2.1-.9.1-.4.2-1 .2-1.8 0-1.3-.4-2.1-1.3-2.3s-1.9-.3-3.1-.3c-.3 0-.5 0-.8 0s-.5 0-.8 0c-.8 0-1.3-.2-1.5-.5s-.3-.7-.3-1.2c0-.1 0-.1 0-.2s0-.2 0-.2c0-.2.1-.3.2-.5s.2-.3.4-.4.4-.1.6-.2c.2 0 .5-.1.7-.1h.6.5.7c1 0 1.6.1 1.9.4.3.2.5.7.5 1.5h1.4z"/></g></svg>